/* XPM */
static char * mac1_xpm[] = {
"46 46 257 2",
"  	c None",
". 	c #4B6CD6",
"+ 	c #A7A7A7",
"@ 	c #5C6C97",
"# 	c #7581AA",
"$ 	c #D2D2D2",
"% 	c #C4CDE4",
"& 	c #8DADFF",
"* 	c #CBD3E6",
"= 	c #85A5FF",
"- 	c #495FA3",
"; 	c #F3F3F2",
"> 	c #ABBBEC",
", 	c #E0E0E0",
"' 	c #6977A5",
") 	c #4665CB",
"! 	c #5B7BDC",
"~ 	c #5C7CE0",
"{ 	c #BAD4F7",
"] 	c #858482",
"^ 	c #C0D9F8",
"/ 	c #98A8DE",
"( 	c #92A2D9",
"_ 	c #5575DB",
": 	c #9EAEE4",
"< 	c #95B5FF",
"[ 	c #96A6DC",
"} 	c #D0D7E7",
"| 	c #5272D4",
"1 	c #EDF9FF",
"2 	c #7A7A7A",
"3 	c #B5C3DB",
"4 	c #BBC7E3",
"5 	c #F8F8F8",
"6 	c #95A4DA",
"7 	c #2D4187",
"8 	c #9DACE2",
"9 	c #9AA9E0",
"0 	c #91A1D7",
"a 	c #AEBEF4",
"b 	c #F5F5F5",
"c 	c #3E5DC0",
"d 	c #9CBCFF",
"e 	c #AAB7D8",
"f 	c #7C9CFF",
"g 	c #252627",
"h 	c #707A99",
"i 	c #3346AC",
"j 	c #6C8CF1",
"k 	c #A9BAF1",
"l 	c #B1B1B1",
"m 	c #3554B9",
"n 	c #334A91",
"o 	c #8E9ED4",
"p 	c #31478C",
"q 	c #A2C2FF",
"r 	c #8D9CD2",
"s 	c #A6B6ED",
"t 	c #BDCEFF",
"u 	c #AACCFF",
"v 	c #040200",
"w 	c #6282E6",
"x 	c #BABABA",
"y 	c #3853B3",
"z 	c #B2C2F1",
"A 	c #A1B2E9",
"B 	c #4665C7",
"C 	c #6484E9",
"D 	c #D4E3FE",
"E 	c #4968CA",
"F 	c #7493F8",
"G 	c #161616",
"H 	c #4160C2",
"I 	c #4A69CD",
"J 	c #BACAFF",
"K 	c #8A9AD0",
"L 	c #DCDCDE",
"M 	c #1B2899",
"N 	c #4261C4",
"O 	c #C1C1C1",
"P 	c #C1D2FF",
"Q 	c #FAFAFA",
"R 	c #E2F3FF",
"S 	c #3A50B0",
"T 	c #434343",
"U 	c #BEBFC3",
"V 	c #4766C8",
"W 	c #E9E9E9",
"X 	c #B5C5FE",
"Y 	c #6383DF",
"Z 	c #2646AD",
"` 	c #363A49",
" .	c #3D5CBE",
"..	c #2C4CB2",
"+.	c #DADADA",
"@.	c #858DA0",
"#.	c #81807E",
"$.	c #A0B0E6",
"%.	c #546388",
"&.	c #BEC0C3",
"*.	c #666C79",
"=.	c #839EC8",
"-.	c #05098A",
";.	c #33353A",
">.	c #EEEEEE",
",.	c #CDCDCD",
"'.	c #2A2B31",
").	c #595959",
"!.	c #DBEBFD",
"~.	c #A4B4EA",
"{.	c #97A7DD",
"].	c #FCFCFC",
"^.	c #C5D6FF",
"/.	c #8898CE",
"(.	c #4F6ED2",
"_.	c #84A5F6",
":.	c #141D92",
"<.	c #B2C2F9",
"[.	c #8A93A3",
"}.	c #616465",
"|.	c #4C6BCD",
"1.	c #4463C6",
"2.	c #545B76",
"3.	c #4D6DCF",
"4.	c #CEDEFE",
"5.	c #9499A9",
"6.	c #C9DAFF",
"7.	c #0B108B",
"8.	c #283BA2",
"9.	c #B6C7F8",
"0.	c #25325C",
"a.	c #4B5167",
"b.	c #3A59BC",
"c.	c #6988ED",
"d.	c #BACAF9",
"e.	c #8189A0",
"f.	c #3958BB",
"g.	c #8796CD",
"h.	c #757575",
"i.	c #20309B",
"j.	c #FDFDFD",
"k.	c #E4E4E4",
"l.	c #405FC0",
"m.	c #8693C2",
"n.	c #3F4558",
"o.	c #2E3C67",
"p.	c #1B1D22",
"q.	c #9FAFE9",
"r.	c #3856B8",
"s.	c #D4D4D3",
"t.	c #506ECF",
"u.	c #444B61",
"v.	c #8391BE",
"w.	c #3B5ABD",
"x.	c #222B46",
"y.	c #AEBEEF",
"z.	c #8A98C6",
"A.	c #9BABE1",
"B.	c #546FBE",
"C.	c #7F7F7F",
"D.	c #7F8DBA",
"E.	c #7191F5",
"F.	c #14120E",
"G.	c #AFC0F8",
"H.	c #93A3D8",
"I.	c #8F9FD5",
"J.	c #B8C8FE",
"K.	c #3D57A9",
"L.	c #B0AFAF",
"M.	c #9FAFE7",
"N.	c #A2AFD7",
"O.	c #304279",
"P.	c #3F5AB3",
"Q.	c #5878DC",
"R.	c #FFFFFF",
"S.	c #FEFEFE",
"T.	c #F8F8F7",
"U.	c #A1B2EC",
"V.	c #A3B4EB",
"W.	c #A3B4ED",
"X.	c #0F0F0E",
"Y.	c #9FAFE5",
"Z.	c #9DA9BF",
"`.	c #A7C8FF",
" +	c #7797FC",
".+	c #CFD0D4",
"++	c #9BACE3",
"@+	c #5F7EE2",
"#+	c #F2F2F2",
"$+	c #5B6380",
"%+	c #4E6BC9",
"&+	c #7992C6",
"*+	c #989FB1",
"=+	c #A6C5F7",
"-+	c #8EB0F6",
";+	c #5171DB",
">+	c #90A0D6",
",+	c #ACCAF7",
"'+	c #D0D0D0",
")+	c #799AFD",
"!+	c #7F9DF2",
"~+	c #9FABD4",
"{+	c #8B9BD4",
"]+	c #8B9CD2",
"^+	c #8B9BD1",
"/+	c #B6B6B6",
"(+	c #97B8F6",
"_+	c #9EBFF8",
":+	c #A7B7EF",
"<+	c #6F8FF3",
"[+	c #A7B8F4",
"}+	c #FEFEFB",
"|+	c #4562C2",
"1+	c #0F178F",
"2+	c #A4B3EA",
"3+	c #4E65CA",
"4+	c #A4B3EC",
"5+	c #8E8E8D",
"6+	c #374F9E",
"7+	c #D8D8D8",
"8+	c #ABBCF5",
"9+	c #627ABE",
"0+	c #B1BEDD",
"a+	c #10145C",
"b+	c #919FCE",
"c+	c #101467",
"d+	c #989794",
"e+	c #C4C5C8",
"f+	c #51576B",
"g+	c #4A515A",
"h+	c #4F4F4E",
"i+	c #0C0A07",
"j+	c #D7E8FF",
"k+	c #6688E6",
"l+	c #F9F9F9",
"m+	c #5F7FDC",
"n+	c #B3CFF7",
"o+	c #95A6E2",
"p+	c #42507D",
"q+	c #C0C6D7",
"r+	c #ECECEB",
"s+	c #B3C3FB",
"t+	c #B3C4FC",
"u+	c #E1EFFE",
"v+	c #233056",
"w+	c #7D86A0",
"x+	c #77797A",
"y+	c #FCFBF8",
"z+	c #3F5BBB",
"A+	c #5A74D5",
"B+	c #B3B8C7",
"C+	c #5777D8",
"D+	c #C1D2F9",
"E+	c #81A1FE",
"F+	c #94A5DD",
"G+	c #A8B7E9",
"H+	c #C8D8F9",
"                                                                                            ",
"                                                          ).                                ",
"                                                        }.G h.                              ",
"                                                      h.g ).                                ",
"                                                    + g ;.                                  ",
"                                                  +.T g                                     ",
"                                                  x+p.h+                                    ",
"          N.  e 0+0+  3 4 4   % % %   % % %   * *+g '.5.B+q+  } } }   * * *   % %           ",
"        6+! _._.-+(+_+=+,+n+{ { ^ ^ ^ ^ ^ ^ ^ ^ g+G x+1 u+!.D 4.H+D+d.9.a k W.q.o+'         ",
"        6+_ )+f = & & < d d q `.`.u u u u `.u =.g '.* u+D 4.6.^.t J X G.8+s A : F+'         ",
"        n ;+F  +f E+= & < < d d q q q q q q _+n.F.}.R D 4.6.^.P t J.<.a :+~.M.++F+'         ",
"        n . j <+F )+E+= = & < < < < < < < d &+p.g 3 j+4.6.P P t J <.a k s A ++9 ( '         ",
"        n I C c.<+F  +f E+E+!+_.& & & & & < %.F.*.!.6.^.P t 9.> y.G.k s A : 9 {.>+'         ",
"        n ) @+w c.j E.F E+A+7.S & = = = = !+'.G Z.D P P t ^.w+X.2.s+s A M.++/ F+o '         ",
"        n N ! ~ w C c.j )+t.-.i = f f f E+9+G g 4 ^.t t J.P h v a.G.V.$.++9 [ H.o '         ",
"        n  ._ C+! @+w C <+3+-.i )+F F F f p+i+*.^.J J.X s+t h v a.8+$.++9 [ H.0 {+'         ",
"        n f.(.| _ Q.~ @+c.3+7.i E.j j <+c.'.G N.t X s+<.a J.h i+a.k 8 9 {.6 0 I.K '         ",
"        p m I |.(.| _ Q.~ ! A+! C C C j - i+` J.t+<.a a k k $.H.{.: 9 {.[ ( >+o K '         ",
"        p m ) V I (.| | _ Q.~ ~ ~ @+@+C o.v f+J.a a k k s ~.V.4+M.9 / [ H.0 o r /.'         ",
"        p ..N 1.V I 3.(.| | _ C+C+Q.Q.~ x.i+h X k k :+s 2+$.Y.8 A./ [ 6 ( I.o r /.'         ",
"        p ..c H 1.B E I |.(.(.| | | _ %+G G b+8+s ~.2+A $.: 8 A./ [ 6 H.>+o r ^+g.'         ",
"        p .. . .l.N 1.V E I |.3.(.(.;+K.X.'.k 8+k :+W.Y.: 8 A./ {.6 H.( >+o ]+K g.'         ",
"        p Z w.w.c l.N 1.B V E I I I ;+O.v ;.z.m.v.v.z.: ++9 9 {.[ 6 ( >+I.r ^+K g.'         ",
"        p Z f.b. . .c H N 1.B V V E . v+i+X.X.X.X.i+` M.8 9 / [ 6 H.0 >+o r ^+K g.'         ",
"        p Z r.f.b. .c l.H N N 1.B B I x.i+X.X.X.X.v ` M.9 / [ 6 6 ( >+I.o r ^+K g.'         ",
"        p Z r.r.f.w.c l.l.H N N 1.1.B P.K.K.K.P.v+v n.q.9 {.[ 6 H.( H.( o r ^+^+g.'         ",
"        p Z m m f.w.y r.N 1.N N N N 1.) ) ) ) . 0.v n.q./ {.[ [ 9 : /.D.>+o r r /.'         ",
"        p Z m m f. .M 1+i.S l.N B V V B B B 1.I v+v u.[+U.q.++{.m.2.G '.( I.r r /.'         ",
"        p Z r.r.b.f.:.7.-.7.:.M i.8.i y z+l.H ) 0.v ;.# $+u.` g i+v v G D.6 o o K '         ",
"        p Z r.r.b.w.r...8.:.7.-.-.-.7.7.1+1+:.:.a+X.X.v v v v v p.a.h v.>+0 I.I.^+'         ",
"        p Z f.f.w. .c 1.B l.y 8.i.i.M :.:.:.1+1+c+X.G '.` n.2.# H.U.M./ H.0 0 >+r '         ",
"        p Z w.w. .c l.H N 1.V E E E E V B |+l.) 7 i+'.$.A U.W.A A.{.[ [ 6 H.( ( o '         ",
"        p .. . .c l.H N |+1.B V V E E E I I |.(.6+i+p.6 A 8 8 A.9 9 / {.[ 6 6 H.I.'         ",
"        p ..c c H N N 1.B V E E E I I |.|.|.|.3.) p.i+D.:+: : 8 8 A.9 / / [ 6 6 >+'         ",
"        p ..N H N 1.B V E E |.|.3.3.3.t.t.t.t.t._ o.v $+8+$.$.Y.: : 8 A.9 / / {.( '         ",
"        p ..H H N 1.B V E I I |.3.3.3.(.(.(.(.(._ n i+;.V.A $.M.: : 8 A.A.9 / / ( '         ",
"        7 w.| | | C+C+! ! ! m+m+m+Y Y Y Y Y Y Y k+B.F.F.~+d.z z z y.y.> > G+G+G+$.'         ",
"          @ @ @ @ @ @ @ @ @ @ @ @ @ @ @ @ @ @ @ @ %.p.X.*.5.[.[.[.[.@.@.@.e.e.w+e.          ",
"                                                      X.'.                                  ",
"                                                    2 G G                                   ",
"                                                      ;.X.2                                 ",
"                                                      5+G '.                                ",
"                                                        T ).                                ",
"                                                                                            ",
"                                                                                            ",
"                                                                                            "};
