/* XPM */
static char * sgi_xpm[] = {
"47 47 61 1",
" 	c None",
".	c #DFEBDF",
"+	c #EFEBEF",
"@	c #DFEBEF",
"#	c #EFDBEF",
"$	c #DFDBDF",
"%	c #CFDBDF",
"&	c #D7D3D7",
"*	c #CFCBCF",
"=	c #BEC3C7",
"-	c #9EAAAE",
";	c #514161",
">	c #F7F3F7",
",	c #EFEBFF",
"'	c #8E698E",
")	c #302830",
"!	c #CFBACF",
"~	c #717D79",
"{	c #202030",
"]	c #716171",
"^	c #202020",
"/	c #000000",
"(	c #AEAAAE",
"_	c #616586",
":	c #201030",
"<	c #203041",
"[	c #302041",
"}	c #202041",
"|	c #AEBABE",
"1	c #303051",
"2	c #302051",
"3	c #BEBABE",
"4	c #616171",
"5	c #101020",
"6	c #7D9EBE",
"7	c #3C5D7D",
"8	c #BEAABE",
"9	c #A2A2A6",
"0	c #828282",
"a	c #AEBAAE",
"b	c #AEAABE",
"c	c #080810",
"d	c #AE9AAE",
"e	c #515161",
"f	c #9EAA9E",
"g	c #9E9AAE",
"h	c #9E929E",
"i	c #8E929E",
"j	c #495971",
"k	c #96928E",
"l	c #8E8A8E",
"m	c #385D38",
"n	c #718A8E",
"o	c #414141",
"p	c #BEAAAE",
"q	c #38FB30",
"r	c #414161",
"s	c #413051",
"t	c #413041",
"u	c #696961",
"v	c #616161",
"                                               ",
".+++@+++@+++@+++@+++@+++@+++.#.$$$%$&&&***=&-; ",
">@+@,@+@,@+@,@+@,@+@,@+@,@+@@@@.$.$%%%*&*&*=') ",
">+@+++@+++@+++@+++@+++@+++@#.$.$$$&&&*&***=!~{ ",
">@,@+@,@+@,@+@,@+@,@+@,@+@@@@.$.$%%%*&*=*===]^ ",
">+++@///////////////////////////////////(!==_: ",
">@+@,////////////<[<[<[<[<}{}{{{{{{{{{{{>==|]^ ",
">+@++/////////////12121[[///////{{{:{{{:>33345 ",
">@,@+//////////////671277/////////}{{{}{>|=|]5 ",
">+++@////////////6777//7677/////////{:{:>3|845 ",
">@+@,//////////677790//907677////////{{{>|3a_5 ",
">+@++////////6777//90//90//7677///////{:>3a845 ",
">@,@+///////677////90//90////767//////}{>aba_5 ",
">+++@///////7767///90//90///6777///////:>8((45 ",
">@+@,/////////7767/90//90/6777/////////{>ab-_5 ",
">+@++///////6///77670//96777///6///////:>(((45 ",
">@,@+//////6767///77666777///6777//////{>-b-_c ",
">+++@//////677767//977770//677767//////:>(-de5 ",
">@+@,//////67//776700//996777//67//////{>-(f_c ",
">+@++//////67///97767//67779///67/////{:>dfde5 ",
">@,@+//////67/9900067//6700099/67/////}{>-gf_c ",
">+++@//////67900///679967///00967/////{:>dhgec ",
">@+@,//////670///9967006799///067////{{{>fgijc ",
">+@++///////6//990067//670099//6/////{{:>hhhec ",
">@,@+////////6900//67//67//0096/////{{}{>ihijc ",
">+++.///////767////67//67////677////{:{:>hihec ",
">@+@@////////7767//67//67//6777////{{{{{>ihkec ",
">+.#.//////////776767{{676777/////{:{{{:>hkkec ",
">@@@$////////////7767{}6777/////{{}{{{}{>kik;/ ",
">#.$$////////////:{77:{67:{:{:{:{:{:{:{:>hllmc ",
">.$.$//////////{{{{{{{{{{{{{{{{{{{{{{{{{>kln;/ ",
">$.$$(>>>>>>>>>>>>>>>>>>>>>>>>>>>>>>>>>>>ll'o/ ",
">%$%$%*%*=*=*====|3|8abab(b-(-gfgihih///lnln;/ ",
">$%$&&&***=!=!3338|8ap(((((dfdhghhihk/qq3'~'o/ ",
">%$%*&*&*=*====|3||aba(-(-(fgfgihihkik3|=n'~r/ ",
">(~]~]~]]]4]4]4]4_4_4_e_e_e_eje;e;m;m;o;o;oso/ ",
"~///////////////////////////////////////////// ",
"          >4omom)=|di'4eot){^5^[)t1tu          ",
"         >(u4u4ue14n'n4eo115:{1m4u_4{u         ",
"        >$~'ll~'l'vvos1t1t1sme~'llkk4)u        ",
"       >>fgfgfg-dfg-(-(-(-(-(-b-(-ba(4{u       ",
"      >>>>>>>>>>>>>>>>>>>>>>>>>>>>>>>>4)       ",
"      >((((((((((((((((((((((((((((((((/       ",
"      >((((((((((((((((((((((((((((((((/       ",
"      _////////////////////////////////{       ",
"      (lvvvvvuvvvuvuvuvuuuv]uuu]u]_]u]_(       ",
"                                               "};
