/* XPM */
static char * netopia_xpm[] = {
"97 28 437 2",
"  	c None",
". 	c #FFFFFF",
"+ 	c #EEEEEE",
"@ 	c #C3C3C3",
"# 	c #C7C7C7",
"$ 	c #F5F5F5",
"% 	c #F8F8F8",
"& 	c #7B7B7B",
"* 	c #171717",
"= 	c #1C1C1C",
"- 	c #959595",
"; 	c #FAFAFA",
"> 	c #FEFEFE",
", 	c #F0F0F0",
"' 	c #CACACA",
") 	c #9F9F9F",
"! 	c #DADADA",
"~ 	c #DFDFDF",
"{ 	c #262626",
"] 	c #000000",
"^ 	c #010101",
"/ 	c #424242",
"( 	c #E8E8E8",
"_ 	c #FDFDFD",
": 	c #9C9C9C",
"< 	c #1D1D1D",
"[ 	c #0C0C0C",
"} 	c #C1C1C1",
"| 	c #EDEDED",
"1 	c #434343",
"2 	c #616161",
"3 	c #F2F2F2",
"4 	c #7C7C7C",
"5 	c #050505",
"6 	c #191919",
"7 	c #D4D4D4",
"8 	c #FFFFFE",
"9 	c #FFFFFD",
"0 	c #FEFEFD",
"a 	c #646464",
"b 	c #6C6C6C",
"c 	c #D9D9D9",
"d 	c #F6F6F6",
"e 	c #666666",
"f 	c #020202",
"g 	c #2A2A2B",
"h 	c #DDDDDD",
"i 	c #F3F9EF",
"j 	c #DDEED2",
"k 	c #D1E9C4",
"l 	c #CEE7C1",
"m 	c #DAECCE",
"n 	c #EAF5E4",
"o 	c #FCFDFC",
"p 	c #FFFEFE",
"q 	c #DCDCDC",
"r 	c #F9F9F9",
"s 	c #E1E1E1",
"t 	c #DBDBDB",
"u 	c #FBFBFB",
"v 	c #B3B3B3",
"w 	c #CDCDCD",
"x 	c #EFEFEF",
"y 	c #D3D3D3",
"z 	c #A8A8A8",
"A 	c #3F3F3F",
"B 	c #1B1B1B",
"C 	c #989797",
"D 	c #AFAFAF",
"E 	c #AFAFAE",
"F 	c #CCCCCB",
"G 	c #FCFCFC",
"H 	c #FEFEFF",
"I 	c #F9FCF8",
"J 	c #C3E3B2",
"K 	c #90CF79",
"L 	c #9FD183",
"M 	c #B7DB9E",
"N 	c #B8DCA1",
"O 	c #AAD68F",
"P 	c #8ECC74",
"Q 	c #ADDA99",
"R 	c #EEF6EA",
"S 	c #FEFFFE",
"T 	c #BEBEBE",
"U 	c #B6B6B6",
"V 	c #D5D5D5",
"W 	c #B0B0B0",
"X 	c #B4B4B4",
"Y 	c #D8D8D8",
"Z 	c #EBEBEB",
"` 	c #989898",
" .	c #818181",
"..	c #BBBBBB",
"+.	c #494949",
"@.	c #4A4A4A",
"#.	c #C2C2C2",
"$.	c #E6E6E6",
"%.	c #202020",
"&.	c #232323",
"*.	c #898989",
"=.	c #757575",
"-.	c #000001",
";.	c #020203",
">.	c #9FA0A0",
",.	c #FDFFFD",
"'.	c #E4F2DC",
").	c #8ACD71",
"!.	c #8ACD74",
"~.	c #DEEED2",
"{.	c #F0F7EB",
"].	c #A1D68E",
"^.	c #71C357",
"/.	c #CBE7BC",
"(.	c #F9FCF7",
"_.	c #FFFEFF",
":.	c #FEFFFF",
"<.	c #3D3D3D",
"[.	c #444444",
"}.	c #060606",
"|.	c #070707",
"1.	c #5F5F5F",
"2.	c #D0D0D0",
"3.	c #A0A0A0",
"4.	c #B2B2B2",
"5.	c #939393",
"6.	c #3E3E3E",
"7.	c #030303",
"8.	c #353535",
"9.	c #BDBDBD",
"0.	c #858585",
"a.	c #0B0B0B",
"b.	c #585858",
"c.	c #212121",
"d.	c #3B3B3B",
"e.	c #676767",
"f.	c #0A0A0A",
"g.	c #1E1E1E",
"h.	c #303030",
"i.	c #0F0F0F",
"j.	c #343434",
"k.	c #131313",
"l.	c #323232",
"m.	c #383737",
"n.	c #414240",
"o.	c #E6E6E7",
"p.	c #E7F3E2",
"q.	c #83CA6B",
"r.	c #89CE73",
"s.	c #F0F7EA",
"t.	c #FEFFFD",
"u.	c #F8FBF5",
"v.	c #AEDC9D",
"w.	c #61C14B",
"x.	c #CAE7BD",
"y.	c #FDFFFE",
"z.	c #F1F1F1",
"A.	c #5B5B5B",
"B.	c #111111",
"C.	c #080808",
"D.	c #8B8B8B",
"E.	c #040404",
"F.	c #4E4E4E",
"G.	c #292929",
"H.	c #2B2B2B",
"I.	c #181818",
"J.	c #717171",
"K.	c #B1B1B1",
"L.	c #4F4F4F",
"M.	c #8F8F8F",
"N.	c #F7F7F7",
"O.	c #838383",
"P.	c #090909",
"Q.	c #DEDEDE",
"R.	c #ECECEC",
"S.	c #0D0D0D",
"T.	c #AAAAAA",
"U.	c #E4E4E4",
"V.	c #565656",
"W.	c #383838",
"X.	c #D6D6D6",
"Y.	c #EFEFEE",
"Z.	c #F0F0EF",
"`.	c #FBFCF8",
" +	c #8FCF79",
".+	c #66C04D",
"++	c #E1F1D8",
"@+	c #F7FBF4",
"#+	c #86CB6E",
"$+	c #66C04B",
"%+	c #F4F4F4",
"&+	c #656565",
"*+	c #5A5A5A",
"=+	c #BABABA",
"-+	c #505050",
";+	c #7D7D7D",
">+	c #8E8E8E",
",+	c #B5B5B5",
"'+	c #545454",
")+	c #141414",
"!+	c #5C5C5C",
"~+	c #E7E7E7",
"{+	c #E3E3E3",
"]+	c #636363",
"^+	c #B8B8B8",
"/+	c #B9B9B9",
"(+	c #0E0E0E",
"_+	c #393939",
":+	c #1A1A1A",
"<+	c #595959",
"[+	c #F3F3F3",
"}+	c #3C3C3C",
"|+	c #E4E5E4",
"1+	c #D3E9C5",
"2+	c #50BB37",
"3+	c #91D27E",
"4+	c #F7FBF5",
"5+	c #BFE2AF",
"6+	c #4FBA37",
"7+	c #A4D690",
"8+	c #FCFDFB",
"9+	c #F7F8F7",
"0+	c #747474",
"a+	c #2E2E2E",
"b+	c #313131",
"c+	c #A9A9A9",
"d+	c #999999",
"e+	c #9B9B9B",
"f+	c #979797",
"g+	c #8A8A8A",
"h+	c #474747",
"i+	c #F9FBF6",
"j+	c #94D281",
"k+	c #4CB933",
"l+	c #AEDD9D",
"m+	c #FDFEFD",
"n+	c #D6ECCA",
"o+	c #5EBE45",
"p+	c #6CC457",
"q+	c #E9F4E1",
"r+	c #F8F8F6",
"s+	c #737373",
"t+	c #2A2A2A",
"u+	c #CECECE",
"v+	c #727272",
"w+	c #151515",
"x+	c #949494",
"y+	c #A7A7A7",
"z+	c #6E6E6E",
"A+	c #101010",
"B+	c #E5E5E5",
"C+	c #575757",
"D+	c #3D3C3C",
"E+	c #E5E4E5",
"F+	c #E9F4E2",
"G+	c #72C65B",
"H+	c #49B832",
"I+	c #ACDC9B",
"J+	c #FDFEFC",
"K+	c #D7ECCB",
"L+	c #59BD40",
"M+	c #CEE8C2",
"N+	c #9E9E9E",
"O+	c #8D8D8D",
"P+	c #9A9A9A",
"Q+	c #555555",
"R+	c #282828",
"S+	c #D2D2D2",
"T+	c #E1F0D8",
"U+	c #68C24F",
"V+	c #45B72E",
"W+	c #92D17D",
"X+	c #F8FBF4",
"Y+	c #FEFEFC",
"Z+	c #C3E4B3",
"`+	c #52BA38",
" @	c #4DB835",
".@	c #BBE1AC",
"+@	c #2D2D2D",
"@@	c #AEAEAE",
"#@	c #7E7E7E",
"$@	c #6F6F6F",
"%@	c #161616",
"&@	c #242424",
"*@	c #E4E5E5",
"=@	c #E0F0D8",
"-@	c #66C14E",
";@	c #44B72C",
">@	c #5DBE43",
",@	c #DBEED1",
"'@	c #F4FAF2",
")@	c #80CA68",
"!@	c #44B72D",
"~@	c #4AB932",
"{@	c #B5DFA9",
"]@	c #F7F7F5",
"^@	c #535353",
"/@	c #E3F1DB",
"(@	c #6AC251",
"_@	c #44B72E",
":@	c #45B62E",
"<@	c #87CD70",
"[@	c #F1F7EA",
"}@	c #FAFBF8",
"|@	c #B7DDA4",
"1@	c #4DB833",
"2@	c #45B62C",
"3@	c #50B939",
"4@	c #C0E3B2",
"5@	c #F6F7F7",
"6@	c #CFCFCF",
"7@	c #ADADAD",
"8@	c #121212",
"9@	c #7CC967",
"0@	c #44B62C",
"a@	c #43B72D",
"b@	c #48B730",
"c@	c #7ECA69",
"d@	c #D4EBC9",
"e@	c #F4F9F0",
"f@	c #FAFCF9",
"g@	c #FBFDFA",
"h@	c #E3F2DD",
"i@	c #9ED589",
"j@	c #55BB3C",
"k@	c #45B72C",
"l@	c #5FBF47",
"m@	c #D9EDCF",
"n@	c #F8F7F8",
"o@	c #929292",
"p@	c #808080",
"q@	c #ACACAC",
"r@	c #919191",
"s@	c #ACDB9B",
"t@	c #49B731",
"u@	c #5ABD3F",
"v@	c #86CD71",
"w@	c #9ED78E",
"x@	c #A4D992",
"y@	c #90D07C",
"z@	c #69C250",
"A@	c #47B72E",
"B@	c #45B82D",
"C@	c #7DC965",
"D@	c #F2F7ED",
"E@	c #B7B7B7",
"F@	c #C9C9C9",
"G@	c #1F1F1F",
"H@	c #5EC047",
"I@	c #44B62E",
"J@	c #45B72D",
"K@	c #44B82D",
"L@	c #43B82D",
"M@	c #47B831",
"N@	c #43B72C",
"O@	c #44B62D",
"P@	c #48B831",
"Q@	c #C4E3B4",
"R@	c #FCFDFD",
"S@	c #F7F7F6",
"T@	c #404040",
"U@	c #878787",
"V@	c #ABABAB",
"W@	c #626262",
"X@	c #1A1B1A",
"Y@	c #E9E9E9",
"Z@	c #DEDFDF",
"`@	c #F4F4F3",
" #	c #B9DFA8",
".#	c #53BB3A",
"+#	c #44B72B",
"@#	c #49B830",
"##	c #8FCE78",
"$#	c #FAFCF8",
"%#	c #7F7F7F",
"&#	c #969696",
"*#	c #888888",
"=#	c #D1D1D1",
"-#	c #2C2C2C",
";#	c #4D4D4D",
">#	c #000101",
",#	c #40403F",
"'#	c #373738",
")#	c #C4C3C4",
"!#	c #F4F9F1",
"~#	c #A6D795",
"{#	c #4EB935",
"]#	c #44B82E",
"^#	c #43B72E",
"/#	c #46B72F",
"(#	c #81CB69",
"_#	c #E4F2DB",
":#	c #F7F7F8",
"<#	c #3A3A3A",
"[#	c #414141",
"}#	c #C6C6C6",
"|#	c #4B4B4B",
"1#	c #A2A2A2",
"2#	c #686868",
"3#	c #5D5D5D",
"4#	c #1C1C1B",
"5#	c #111010",
"6#	c #202120",
"7#	c #A8A9A7",
"8#	c #FDFFFF",
"9#	c #FDFEFB",
"0#	c #CAE4B9",
"a#	c #70C658",
"b#	c #51BB39",
"c#	c #4AB933",
"d#	c #61C04A",
"e#	c #A4D68F",
"f#	c #F4FAF0",
"g#	c #F7F8F8",
"h#	c #252525",
"i#	c #828282",
"j#	c #C5C5C5",
"k#	c #BBBBBA",
"l#	c #9A9A9B",
"m#	c #A2A2A3",
"n#	c #C1C2C2",
"o#	c #F2F3F1",
"p#	c #E7F3E0",
"q#	c #BCE1AE",
"r#	c #94D07E",
"s#	c #85CA6C",
"t#	c #7FC866",
"u#	c #8ECF79",
"v#	c #AFDB9E",
"w#	c #DCEED0",
"x#	c #BCBCBC",
"y#	c #E0E0E0",
"z#	c #9D9D9D",
"A#	c #D7D7D7",
"B#	c #F9FCF6",
"C#	c #F6FAF3",
"D#	c #A4A4A4",
". . . . . . . . . . . . . . . . . . . . . . . . . . . . . . . . . . . . . . . . . . . . . . . . . . . . . . . . . . . . . . . . . . . . . . . + @ # $ . . . . . . . . . . . . . . . . . . . . . . ",
". . . . . . . . . . . . . . . . . . . . . . . . . . . . . . . . . . . . . . . . . . . . . . . . . . . . . . . . . . . . . . . . . . . . . . % & * = - ; . . . . . . . . . . . . . . . . . . . . . ",
". . . . . . . . . . . . . . . . . . . . . . . . . . . . . . > , ' ) ! . . . . . . . . . . . . . . . . . . . . . . . . . . . . . . . . . . . ~ { ] ^ / ( . . . . . . . . . . . . . . . . . . . . . ",
". . . . . . . . . . . . . . . . . . . . . . . . . . . . . . _ : < [ } . . . . . . . . . . . . . . . . . . . . . . . . . . . . . . . . . . . | 1 ] ^ 2 3 . . . . . . . . . . . . . . . . . . . . . ",
". . . . . . . . . . . . . . . . . . . . . . . . . . . . . . ; 4 5 6 7 . . . . . . . . . 8 9 0 . . . . . . . . . . . . . . . . . . . . . . . > # a b c > . . . . . . . . . . . . . . . . . . . . . ",
". . . . . . . . . . . . . . . . . . . . . . . . . . . . . . d e f g h . 8 8 . . . . 8 i j k l m n o . p 8 . . 8 . . . . . . . . . . . . . . . . > > . . . . . . . . . . . . . . . . . . . . . . . ",
". . _ | q _ . r s ' t u . . . . . . > . | # v w x > . . > y z A ^ B C D E F G H H I J K L M N O P Q R > S 8 . u s T U $ % V W X Y _ . . . . . G | q Z . . . . > d V D - ` T 3 . . . . . . . . . . ",
". .  .= 6 c ..+.[ ] 5 @.#.; . . . . $. .%.] ] ^ &.*.+ . G =.^ ] ] ] ] -.;.>.p ,.'.).!.~.8 S p 9 {.].^./.(._.:.( / ] <.X [.}.] ^ |.1.2.. . . . 3.B |.4.> . G ~ 5.6.^ ] ] ] 7.8.9.. . . . . . . . . ",
". . 0.] a.b.c.] 7.f ] f d.7 . . . x e.f.^ g.h.i.] a.& 3 _ 5.j.k.] [ l.m.n.o.:.p.q.r.s.8 :.S t.S _.u.v.w.x.y.S z.A.] B.&.] }.B.C.] 7.<.Z . . . D.] E.X . . q F.a.] C.G.+.H.E.] 8.+ . . . . . . . . ",
". . W C.^ E.I.J.W K.L.5 7.M.. . N.O.f.P.J.Q.R.@ @.7.S.T.. d U.V.^ W.X.Y.Z.0 `. +.+++> S :.8 . _.:.. @+#+$+n 8 %+&+] ] a.*+W y =+-+7.f ;+% . . >+] E.,+> . x '+)+!+..~+3 {+]+] a.^+. . . . . . . . ",
". > /+(+f _+K.; . . ' :+^ e.. . 2.G.^ +.$.. . . 2.B ] <+> . [+!+^ }+|+y.8 8 1+2+3+4+_._.. . . H 8 8 > 5+6+7+8+9+J.^ [ 0+z.. . . q a+] b+! . . >+] E.,+. . . 7 c+z.. . . . } a.|.d+. . . . . . . . ",
". . ^+S.f.e+G . . . Q.%.] 2 . . f+E.C.g+u . . . r h+] G., . [+A.^ }+|+S 8 i+j+k+l+m+> 9 . :.8 8 . S S n+o+p+q+r+s+^ t+u+> . . . % v+^ w+,+. . >+] E.,+. > . > G > . > _ _ u+I.}.x+. . . . . . . . ",
". . ^+S.[ y+. . . . Q.%.] 2 . . z+] A+) B+U.B+B+B+C+] )+t . [+A.^ D+E+. > F+G+H+I+J+:.p S t.8 :.. :._.K+o+L+M+N.s+^ a+7 . . . > _ N+(+}.M.G . O+] E.,+. . . . . $ V ^+P+>+v+S.}.x+. . . . . . . . ",
". . ^+S.[ y+. . . . Q.%.] 2 . > Q+] 5 R+_+_+_+_+_+I.] A+S+. [+A.^ D+B+_.S T+U+V+W+X+. . . 8 _.8 8 :.Y+Z+`+ @.@N.s+^ +@7 . . . . > @@)+f #@; . O+] E.,+. . . _ 7 $@a+B P.7.f ] |.x+. . . . . . . . ",
". . ^+S.[ y+. . . . Q.%.] 2 . > -+] ^ i.%@%@%@%@* %@%@&@y . [+A.^ }+*@. 8 =@-@;@>@,@,.:.t.p _.:.. _.'@)@!@~@{@]@s+^ +@7 . . . . . =+:+f ;+; . >+] 5 X . . u ) I.^ < h+s+>+a ^ P.y+. . . . . . . . ",
". . ^+S.[ y+. . . . Q.%.^ 2 . > ^@] S.#@v 4.4.4.4.4.4.U , . [+A.^ }+|+8 . /@(@_@:@<@[@S S 8 . S :.}@|@1@2@3@4@5@s+^ +@7 . . . . . U * f #@; . O+] E.,+. . 6@G.^ R+^+R.r _ /+E.P.7@. . . . . . . . ",
". . ^+S.[ y+. . . . Q.%.] 2 . . z+] 8@K.> > > > > > > > . . [+!+^ }+U.9 0 {.9@0@a@b@c@d@e@f@g@@+h@i@j@!@k@l@m@n@s+^ a+7 . . . . > y+B.C.o@G . O+] 5 ,+. r p@}.|.` > . . . =+E.P.q@. . . . . . . . ",
". . ^+S.[ y+. . . . Q.%.] 2 . . 5.f P.r@_ . . . > . . . . . [+!+^ }+U.. p 8+s@t@0@a@!@u@v@w@x@y@z@A@!@B@_@C@D@N.s+^ a+V . . . . ; O.5 %@X > > O+] E.X . , b.] 6 ' . . . . ..7.P.q@. . . . . . . . ",
"> . E@S.[ y+> . . . Q.%.] 2 . . F@G@^ +.~ . . . > _ | % . . [+A.^ d.U.9 8 S q+H@;@I@J@K@L@M@H+J@N@J@!@O@P@Q@R@S@v+^ :+q@u . . . ( T@] W.h . . O+] E.X > x b.] w+} . . . u U@^ P.q@. > ; $.$.r . . ",
". . E@S.[ y+. . . . Q.%.] 2 . . 3 b E.f Q+S+R., B+V@h+K.. . $ W@f X@E@Y@Z@`@8  #.#k@!@_@+#J@!@L@J@!@V+@###$#H N.s+^ ] B x+c B+w ]+] ^ r@G . . O+] E.X . % %#}.f b R.r U.&#B.] 5 *#; r #.5.5.,+. . ",
". . ^+S.[ y+. . . > Q.%.] 2 . . > =#-#] f H.;#V.T@I.] ]+. . G O+|.>#{ ,#'#)#_.!#~#{#;@]#0@;@k@^#k@J@/#(#_#> y.:#s+^ ] ] S.h.<#R+}.] [#+ . . . O+] E.,+. > }#6 ] i.|#$@[#B.|.i.^ G.T ( W 3.d+1#. . ",
". . /+6 g.c+. . . . ~ h.k.2#. . . . X.Q+:+E.] ] P.&.2#h . . . R.3#4#S.5#6#7#:.8#9#0#a#b#V+_@_@V+c#d#e#f#. . 8 g#s+^ h#i#a+8@E.C.< e.B+. . . . o@k.* E@. . . K.a+8@E.E.%@6...M.8@+@' x @@z y+N+. . ",
". . ~+W D s . . . . [+U q@' . . . . > ( ,+%#z+v+M.j#3 . . . . . Y@k#l#m#n#o#. . 8 9#p#q#r#s#t#u#v#w#(.. . . 8 % s+^ a+y 7 y+ .>+x#x . . . . . Y q@7@B+. . . G V y+O.O.@@y#_ + z#y+r _ A#7@V@6@. . ",
". . . > _ . . . . . > > > > . . . . . . > r % % u > . . . . . . . . G _ . . > . . 9 8 m+B#@+C#B#8+8 . . . . . % s+f +@y . _ ; u > . . . . . . > > _ . . . . . . _ ; ; > . . . G u . . > N.N._ . . ",
". . . . . . . . . . . . . . . . . . . . . . . . . . . . . . . . . . . > . . . 8 8 . 8 . t.:._._.S p . . . . . % s+f +@7 . . . . . . . . . . . . . . . . . . . . . . . . . . . . > . . . . . . . . ",
". . . . . . . . . . . . . . . . . . . . . . > . . . . . . . . . . . . . . . . . 8 . . :.. . . . . t.8 . . . . % 0+a.W.V . . . . . > . . . . . . . . . . . . . . . . . . . . . . . . . . . . . . . ",
". . . . . . . . . . . . . . . . . . . . . . . . . . . . . . . . . . . . . . . . . . 8 8 8 . 8 8 . :.. . . . . u 9.D#y N.. . . . . . . . . . . . . . . . . . . . > . . . . . . . . . > > . . . . . ",
". . . . . . . . . . . . . . . . . . . . . . . . . . . . . . . . . . . . . . . 8 . :.:.. . . :.S . 8 . . . . . . . . . . . . . . . . . . . . . . . . . . . . . . . . . . . > . > . . . . . . . . . "};
