/* XPM */
static char * qnx_xpm[] = {
"47 47 71 1",
" 	c None",
".	c #DFEBDF",
"+	c #EFEBEF",
"@	c #DFEBEF",
"#	c #EFDBEF",
"$	c #DFDBDF",
"%	c #CFDBDF",
"&	c #D7D3D7",
"*	c #CFCBCF",
"=	c #BEC3C7",
"-	c #9EAAAE",
";	c #514161",
">	c #F7F3F7",
",	c #EFEBFF",
"'	c #8E698E",
")	c #302830",
"!	c #CFBACF",
"~	c #717D79",
"{	c #202030",
"]	c #716171",
"^	c #202020",
"/	c #000000",
"(	c #AEAAAE",
"_	c #616586",
":	c #201030",
"<	c #336699",
"[	c #AEBABE",
"}	c #BEBABE",
"|	c #616171",
"1	c #101020",
"2	c #202041",
"3	c #BEAABE",
"4	c #AEBAAE",
"5	c #326496",
"6	c #6699CC",
"7	c #AEAABE",
"8	c #184550",
"9	c #013132",
"0	c #456A6A",
"a	c #275277",
"b	c #305F8B",
"c	c #FFFFFF",
"d	c #A6B8B8",
"e	c #849D9D",
"f	c #527A95",
"g	c #080810",
"h	c #F0F3F3",
"i	c #DEE5E5",
"j	c #CBD6D6",
"k	c #AE9AAE",
"l	c #515161",
"m	c #5386B8",
"n	c #9EAA9E",
"o	c #9E9AAE",
"p	c #9E929E",
"q	c #8E929E",
"r	c #495971",
"s	c #96928E",
"t	c #8E8A8E",
"u	c #385D38",
"v	c #718A8E",
"w	c #414141",
"x	c #BEAAAE",
"y	c #38FB30",
"z	c #414161",
"A	c #413051",
"B	c #413041",
"C	c #302041",
"D	c #303051",
"E	c #696961",
"F	c #616161",
"                                               ",
".+++@+++@+++@+++@+++@+++@+++.#.$$$%$&&&***=&-; ",
">@+@,@+@,@+@,@+@,@+@,@+@,@+@@@@.$.$%%%*&*&*=') ",
">+@+++@+++@+++@+++@+++@+++@#.$.$$$&&&*&***=!~{ ",
">@,@+@,@+@,@+@,@+@,@+@,@+@@@@.$.$%%%*&*=*===]^ ",
">+++@///////////////////////////////////(!==_: ",
">@+@,/<<<<<<<<<<<<<<<<<<<<<<<<<<<<<<<<{{>==[]^ ",
">+@++/<<<<<<<<<<<<<<<<<<<<<<<<<<<<<<<<{:>}}}|1 ",
">@,@+/<<<<<<<<<<<<<<<<<<<<<<<<<<<<<<<<2{>[=[]1 ",
">+++@/<<<<<<<<<<<<<<<<<<<<<<<<<<<<<<<<{:>}[3|1 ",
">@+@,/<<<<<<<<<<<<<<<<<<<<<<<<<<<<<<<<{{>[}4_1 ",
">+@++/<<<<<<<<<<<<<<<<<<<<<<<<<<<<<<<<{:>}43|1 ",
">@,@+/<<<<<55555<<<<<<<<<<<<<<<<<<<<<62{>474_1 ",
">+++@/<<<89808889a5<<<<<<<<88a85<58abb/:>3((|1 ",
">@+@,/<50ccccccccc95<<<<<<99dcc98ecc9f/{>47-_1 ",
">+@++/<9cce99999ccf00095<90080ccccc9f6/:>(((|1 ",
">@,@+/59cc8998ccccfcccc899cc09fccc9f66/{>-7-_g ",
">+++@/59hch0999cccicchcce9cc0jccjccef6/:>(-kl1 ",
">@+@,/<90ccccccccccjc9dcc0ccjcc09jccam/{>-(n_g ",
">+@++/<999980089999cc998cccf899999999b{:>knkl1 ",
">@,@+/<b89999999899ii9999ijj09ama888f62{>-on_g ",
">+++@/<<<5bbbb5559999ab999999am6mmmm66{:>kpolg ",
">@+@,/<<<<<<<<<<<5aaa5<5aaaabmmmm6mm6<{{>noqrg ",
">+@++/<<<<<<<<<<<<5<5<<<55555mmmmm6m<<{:>ppplg ",
">@,@+/<<<<<<<<<<<<<<<<<<<<<<mmmmmm6m<<2{>qpqrg ",
">+++./<<<<<<<<<<<<<<<<<<<<<mmmmmmmm<<<{:>pqplg ",
">@+@@/<<<<<<<<<<<<<<<<<<<<mmmmmmmm<<<<{{>qpslg ",
">+.#./<<<<<<<<<<<<<<<<<<<<mmmmmm<<<<<<{:>psslg ",
">@@@$/<<<<<<<<<<<<<<<<<<<<mmmmmm<<<<<<2{>sqs;/ ",
">#.$$/<<<<<<<<<<<<<<<<<<5mmmm<m<<<<<<<{:>pttug ",
">.$.$//////////{{{{{{{{{{{{{{{{{{{{{{{{{>stv;/ ",
">$.$$(>>>>>>>>>>>>>>>>>>>>>>>>>>>>>>>>>>>tt'w/ ",
">%$%$%*%*=*=*====[}[34747(7-(-onoqpqp///tvtv;/ ",
">$%$&&&***=!=!}}}3[34x(((((knkpoppqps/yy}'~'w/ ",
">%$%*&*&*=*====[}[[474(-(-(nonoqpqpsqs}[=v'~z/ ",
">(~]~]~]]]|]|]|]|_|_|_l_l_l_lrl;l;u;u;w;w;wAw/ ",
"~///////////////////////////////////////////// ",
"          >|wuwu)=[kq'|lwB){^1^C)BDBE          ",
"         >(E|E|ElD|v'v|lwDD1:{Du|E_|{E         ",
"        >$~'tt~'t'FFwADBDBDAul~'ttss|)E        ",
"       >>nonono-kno-(-(-(-(-(-7-(-74(|{E       ",
"      >>>>>>>>>>>>>>>>>>>>>>>>>>>>>>>>|)       ",
"      >((((((((((((((((((((((((((((((((/       ",
"      >((((((((((((((((((((((((((((((((/       ",
"      _////////////////////////////////{       ",
"      (tFFFFFEFFFEFEFEFEEEF]EEE]E]_]E]_(       ",
"                                               "};
