/* XPM */
static char * rb_xpm[] = {
"98 38 38 1",
" 	c None",
".	c #DF0031",
"+	c #700019",
"@	c #E1103E",
"#	c #E3204B",
"$	c #E53058",
"%	c #E74065",
"&	c #E95072",
"*	c #EB607F",
"=	c #ED708B",
"-	c #A45063",
";	c #EF7F98",
">	c #F18FA5",
",	c #F39FB1",
"'	c #B77F8C",
")	c #F5AFBE",
"!	c #F7BFCB",
"~	c #F9CFD8",
"{	c #FBDFE5",
"]	c #FDEFF2",
"^	c #FFFFFF",
"/	c #EFEFEF",
"(	c #DFDFDF",
"_	c #CFCFCF",
":	c #BFBFBF",
"<	c #AFAFAF",
"[	c #9F9F9F",
"}	c #8F8F8F",
"|	c #808080",
"1	c #7F7F7F",
"2	c #707070",
"3	c #606060",
"4	c #505050",
"5	c #404040",
"6	c #303030",
"7	c #202020",
"8	c #101010",
"9	c #000000",
"^^^^^^^^^^^^^^^^^^^^^^^^^^^^^^^^^^^^^^^^^^^^^^^^^^^^^^^^^^^^^^^^^^^^^^^^^^^^^^^^^^^^^^^^^^^^^^^^^^",
"^^^^^^^^^^^^^^^^^^^^^^^^^^^^^^^^^^^^^^^^^^^^^^^^^^^^^^^^^^^^^^^^^^^^^^^^^^^^^^^^^^^^^^^^^^^^^^^^^^",
"^^^^^^^^^^^^^^^^^^^^^^^^^^^^^^^^^^^^^^^^^^^^^^^^^^^^^^^^^^^^^^^^^^^^^^^^^^^^^^^^^^^^^^^^^^^^^^^^^^",
"^^^^^^^^^^^^^^^^^^^^^^^^^^^^^^^^^^^^^^^^^^^^^^^^^^^^^^^^^^^^^^^^^^^^^^^^^^^^^^^^^^^^^^^^^^^^^^^^^^",
"^^^^^^^^^^^^^^^^^^^^^^^^^^^^^^^^^^^^^^^^975-%@%^^^^^^^^^^^^^^^^^^^^^^^^^^^^^^^^^^^^)*#.^^^^^^^^^^^",
"^^[55555555}(^^^^^^^^^^^^^^^^^^^^^^^^^^^999+..%^^^^^^^^^^^^^^^^^^^^^^^^^^^^^^^^^^^^;...^^^^^^^^^^^",
"^^199999999991^^^^^^^^^^^^^^^^^^^^^^^^^^999+..%^^^^^^^^^^^^^^^^^^^^^^^^^^^^^^^^^^^^,...^^^^^^^^^^^",
"^^199999999999}^^^^^^^^^^^^^^^^^^^^^^^^^999+..%^^^^^^^^^^^^^^^^^^^^^^^^^^^^^^^^^^^^!...^^^^^^^^^^^",
"^^1999^^^_39998/^^^^^^^^^^^^^^^^^^^^^^^^999+..%^^^^^^^^^^^^^^^^^^^^^^^^^^^^^^^^^^^^!...^^^^^^^^^^^",
"^^1999^^^^^3999:^^^^^^^^^^^^^^^^^^^^^^^^999+..%^^^^^^^^^^^^^^^^^^^^^^^^^^^^^^^^^^^^!...^^^^^^^^^^^",
"^^1999^^^^^<9991^^^(379961/^^^^^^^[5995<999+..*;$.#*!^^^^^^{>%....%!^^^^^^!&...@*]^!...^^^^=%%%)^^",
"^^1999^^^^^}999[^^[99999997_^^^^/6999999999+.........=^^^]*.........)^^^^,.......@^!...^^^>...$^^^",
"^^1999^^^^/7999_^:9998249997/^^^59998589999+....$%....,^^]#...$%$...#^^^)...@%%..,^!...^^~@..$]^^^",
"^^1999:::[69995^^7997/^^[999[^^[9993^^^}999+..@!^^~@..@]^^!.*{^^^*...^^]@..@{^^~=^^!...^^$..@~^^^^",
"^^199999999998_^:999}^^^^7994^^4999/^^^^999+..%^^^^,...,^^^{^^^^^;...^^,...>^^^^^^^!...^=...~^^^^^",
"^^19999999994(^^1999:^^^^4996^^9995^^^^^999+..%^^^^{...&^^^^^]!);*...^^=...!^^^^^^^!...!...,^^^^^^",
"^^199919998_^^^^1999999999999^_9995^^^^^999+..%^^^^^...%^^^)$........^^%...^^^^^^^^!...$..#^^^^^^^",
"^^1999^[9998/^^^1999999999999^:9991^^^^^999+..%^^^^^...%^^=..........^^%...^^^^^^^^!...!...*^^^^^^",
"^^1999^^19994^^^1999}::::::::^:9994^^^^^999+..%^^^^^...%^!...$)^^;...^^%...^^^^^^^^!...^=...,^^^^^",
"^^1999^^^6999}^^}999:^^^^^^^^^^9995^^^^^999+..%^^^^{...&^;...)^^^;...^^*...~^^^^^^^!...^^$..@~^^^^",
"^^1999^^^_9998/^(9993^^^^^^^^^^6999/^^^^999+..%^^^^,...>^;...]^^^;...^^,...,^^^^^^^!...^^~@..$]^^^",
"^^1999^^^^19994^^5999[^^^/26^^^}9996(^(4999+...;]^!@...{^;...>^^{$...]^]@..@~^^!#>^!...^^^>...&^^^",
"^^1999^^^^/7999<^_89997559991^^^69999999999+..........;^^!....**@....&]^;....%$...!!...^^^^%...>^^",
"^^1999^^^^^[9998/^_799999997_^^^/6999999899+..@......*^^^^*......@*..$]^^=.......%]!...^^^^]@...!^",
"^^:111^^^^^^}111:^^/[45853<^^^^^^^[4554:_11';;]>%%%*!^^^^^^,&#.%*{^=@{^^^^!=%%%*,^^{;;;^^^^^!;;;,^",
"^^^^^^^^^^^^^^^^^^^^^^^^^^^^^^^^^^^^^^^^^^^^^^^^^^^^^^^^^^^^^^^^^^^^^^^^^^^^^^^^^^^^^^^^^^^^^^^^^^",
"^^19999999999999999999999999999999999999999999999999999999999999999999999999999999999999999999999^",
"^^19999999999999999999999999999999999999999999999999999999999999999999999999999999999999999999999^",
"^^199:(9:599999995^^^9999999|^^^[9999998^6|^9:|99999993/^:899999995^^:89999999|:8/}99999994/^_999^",
"^^199:^3:599999995^99999999999^599999999_2:^6^59999999/28(299999995:8(29999999|:::99999999:[96999^",
"^^199:((:599999995^:3999999999^599999999}[^/[^99999995^89::99999995([^59999999|^^899999999}^(|999^",
"^^199:|(^599999995^57999999999^5999999994/^}/:99999996^69:[99999995(([99999999|_/|9999999997|^699^",
"^^199:|3^599999995^||799999999^5999999998^:4^|99999999_[3/499999995:5^69999999|:4^59999999}3|^799^",
"^^199359|799999997|||799999999|7999999999258|7999999998||4999999997393499999995392399999993[[5999^",
"^^19999999999999999999999999999999999999999999999999999999999999999999999999999999999999999999999^",
"^^[5555555555555555555555555555555555555555555555555555555555555555555555555555555555555555555555^",
"^^^^^^^^^^^^^^^^^^^^^^^^^^^^^^^^^^^^^^^^^^^^^^^^^^^^^^^^^^^^^^^^^^^^^^^^^^^^^^^^^^^^^^^^^^^^^^^^^^",
"^^^^^^^^^^^^^^^^^^^^^^^^^^^^^^^^^^^^^^^^^^^^^^^^^^^^^^^^^^^^^^^^^^^^^^^^^^^^^^^^^^^^^^^^^^^^^^^^^^"};
