/* XPM */
static char * macintosh_xpm[] = {
"35 42 461 2",
"  	c None",
". 	c #5F6D47",
"+ 	c #92AA70",
"@ 	c #829865",
"# 	c #E7E7E7",
"$ 	c #BABABA",
"% 	c #A5A5A4",
"& 	c #8E987C",
"* 	c #8AAB55",
"= 	c #7AAC2E",
"- 	c #7CB02E",
"; 	c #73983E",
"> 	c #BAB9B5",
", 	c #CDCDCC",
"' 	c #D7D7D7",
") 	c #929D7F",
"! 	c #7BA539",
"~ 	c #7DB32D",
"{ 	c #7CB02D",
"] 	c #7CB12D",
"^ 	c #667F46",
"/ 	c #7C7D79",
"( 	c #A5A8A0",
"_ 	c #C9C9C8",
": 	c #647647",
"< 	c #7CAE30",
"[ 	c #7CB22D",
"} 	c #79AA2F",
"| 	c #495D2B",
"1 	c #484A45",
"2 	c #8C8D8B",
"3 	c #CDCECC",
"4 	c #A1A1A1",
"5 	c #6D7561",
"6 	c #81AA41",
"7 	c #6D9931",
"8 	c #2B3527",
"9 	c #444440",
"0 	c #929290",
"a 	c #D5D6D4",
"b 	c #767676",
"c 	c #859C60",
"d 	c #7BB02D",
"e 	c #445C24",
"f 	c #1B1E1E",
"g 	c #575654",
"h 	c #A6A5A3",
"i 	c #88AA51",
"j 	c #59792E",
"k 	c #1B1E1A",
"l 	c #2E2E2D",
"m 	c #747572",
"n 	c #BEBDB9",
"o 	c #D4D4D3",
"p 	c #74A234",
"q 	c #79AB2D",
"r 	c #5B7C2A",
"s 	c #17211D",
"t 	c #262726",
"u 	c #545552",
"v 	c #9E9D9A",
"w 	c #DDDCDC",
"x 	c #9A9A9A",
"y 	c #77A530",
"z 	c #78AC2E",
"A 	c #6F992F",
"B 	c #496025",
"C 	c #171A16",
"D 	c #212120",
"E 	c #4A4B48",
"F 	c #80827C",
"G 	c #B8BBAF",
"H 	c #DEDEDD",
"I 	c #565F46",
"J 	c #99B272",
"K 	c #87AC4D",
"L 	c #97B66A",
"M 	c #84AA4B",
"N 	c #8DA764",
"O 	c #BFC7B1",
"P 	c #D5D5D3",
"Q 	c #CACCC5",
"R 	c #96A87E",
"S 	c #748261",
"T 	c #393F2F",
"U 	c #272726",
"V 	c #304030",
"W 	c #5A7135",
"X 	c #6C8A40",
"Y 	c #83A353",
"Z 	c #89B14A",
"` 	c #8DAA60",
" .	c #8DAA61",
"..	c #A1B38D",
"+.	c #D9D5D3",
"@.	c #898888",
"#.	c #63685C",
"$.	c #88A16A",
"%.	c #82AE3D",
"&.	c #7CB22C",
"*.	c #7EB231",
"=.	c #7CA53A",
"-.	c #80A04B",
";.	c #8D9D74",
">.	c #71825C",
",.	c #5D733C",
"'.	c #628635",
").	c #77A431",
"!.	c #7BAD2F",
"~.	c #7A9E48",
"{.	c #98A58B",
"].	c #D7D8D6",
"^.	c #E4E4E4",
"/.	c #7FA14A",
"(.	c #7DB02F",
"_.	c #7CAF2E",
":.	c #7DB22D",
"<.	c #79AB2E",
"[.	c #77A62F",
"}.	c #78A538",
"|.	c #95A57A",
"1.	c #C4C5C1",
"2.	c #86AB4C",
"3.	c #7CAE2E",
"4.	c #7AAA32",
"5.	c #8B9578",
"6.	c #BFBFBC",
"7.	c #D6D6D6",
"8.	c #9AAC54",
"9.	c #86B42B",
"0.	c #8DB527",
"a.	c #8EB526",
"b.	c #89B229",
"c.	c #5E8431",
"d.	c #565753",
"e.	c #93958F",
"f.	c #C9CAC8",
"g.	c #979797",
"h.	c #A39546",
"i.	c #E5BE14",
"j.	c #E9C211",
"k.	c #ECC30F",
"l.	c #EDC30F",
"m.	c #E2BF13",
"n.	c #EAC210",
"o.	c #E5C012",
"p.	c #E7C111",
"q.	c #E8C111",
"r.	c #E8C013",
"s.	c #8A7923",
"t.	c #252220",
"u.	c #3F3F3D",
"v.	c #807F7D",
"w.	c #C4C1BF",
"x.	c #969696",
"y.	c #D8B73A",
"z.	c #FDC50B",
"A.	c #FEC50C",
"B.	c #FEC60C",
"C.	c #B89319",
"D.	c #231E15",
"E.	c #212021",
"F.	c #535352",
"G.	c #92938F",
"H.	c #D1D2D0",
"I.	c #EAEAEA",
"J.	c #E6BC20",
"K.	c #FEC60B",
"L.	c #F5C20F",
"M.	c #46380F",
"N.	c #1A1E1E",
"O.	c #424542",
"P.	c #898683",
"Q.	c #C1C2BF",
"R.	c #D2D2D2",
"S.	c #C5B675",
"T.	c #F7C30E",
"U.	c #FEC50B",
"V.	c #CFA916",
"W.	c #181614",
"X.	c #353534",
"Y.	c #757573",
"Z.	c #BAB8B7",
"`.	c #CECECD",
" +	c #D6B066",
".+	c #FBB511",
"++	c #FDB611",
"@+	c #FCB611",
"#+	c #9E7511",
"$+	c #1D1D1D",
"%+	c #9C9D98",
"&+	c #DEDDDD",
"*+	c #9E9E9E",
"=+	c #E1A066",
"-+	c #FD891B",
";+	c #FC891A",
">+	c #FD8A1B",
",+	c #F7861A",
"'+	c #784220",
")+	c #2A2B2A",
"!+	c #71716F",
"~+	c #BCBBB7",
"{+	c #B0B0B0",
"]+	c #DD9C49",
"^+	c #FD891A",
"/+	c #7D4824",
"(+	c #363734",
"_+	c #848583",
":+	c #CDCECB",
"<+	c #BDBDBD",
"[+	c #DEA26C",
"}+	c #FC881B",
"|+	c #FC891B",
"1+	c #FB891A",
"2+	c #93531B",
"3+	c #3E3F3B",
"4+	c #8C8C8A",
"5+	c #DB9D66",
"6+	c #FA881A",
"7+	c #FC841B",
"8+	c #FC851B",
"9+	c #BF6A21",
"0+	c #3C3C39",
"a+	c #878887",
"b+	c #C28969",
"c+	c #EC5E1D",
"d+	c #F15E1D",
"e+	c #EA5E1F",
"f+	c #E45D1E",
"g+	c #4F3832",
"h+	c #7E7D7D",
"i+	c #C9C7C5",
"j+	c #9F9F9F",
"k+	c #CE9C98",
"l+	c #D63026",
"m+	c #DF2C21",
"n+	c #DE2C21",
"o+	c #DE2D22",
"p+	c #DF2D22",
"q+	c #DD2C22",
"r+	c #D92C22",
"s+	c #812B30",
"t+	c #696362",
"u+	c #B5B1AF",
"v+	c #D3C1BC",
"w+	c #CB3A32",
"x+	c #DE2D21",
"y+	c #DA2C22",
"z+	c #DB2C22",
"A+	c #D02C2A",
"B+	c #76414C",
"C+	c #93948D",
"D+	c #D6D6D4",
"E+	c #AAA29C",
"F+	c #BE4244",
"G+	c #CC2B27",
"H+	c #964F51",
"I+	c #A6A4A0",
"J+	c #D8D7D7",
"K+	c #7C7C7C",
"L+	c #7B7A7A",
"M+	c #BA685C",
"N+	c #DC2C22",
"O+	c #DE2C22",
"P+	c #D72D24",
"Q+	c #A94744",
"R+	c #AE9A9D",
"S+	c #D6D5D4",
"T+	c #7D7D7D",
"U+	c #999999",
"V+	c #BCA1A4",
"W+	c #B02B46",
"X+	c #B62A4E",
"Y+	c #B72A4E",
"Z+	c #B92A4E",
"`+	c #B52A4E",
" @	c #B82A4E",
".@	c #BB2A4D",
"+@	c #BD2A4D",
"@@	c #803E53",
"#@	c #A6A39F",
"$@	c #DAD9D8",
"%@	c #CBCBCC",
"&@	c #9B5175",
"*@	c #A62869",
"=@	c #A72969",
"-@	c #A7296A",
";@	c #9C2761",
">@	c #4B323B",
",@	c #767473",
"'@	c #B2B0AB",
")@	c #AB989F",
"!@	c #9E285F",
"~@	c #A7286A",
"{@	c #5E1C3C",
"]@	c #272626",
"^@	c #615E5A",
"/@	c #A6A6A2",
"(@	c #8D8D8D",
"_@	c #D1CDCE",
":@	c #964968",
"<@	c #A52868",
"[@	c #95275A",
"}@	c #321622",
"|@	c #282928",
"1@	c #6F6E6A",
"2@	c #B6B2AF",
"3@	c #C7C5C4",
"4@	c #B08B91",
"5@	c #972A5F",
"6@	c #A12865",
"7@	c #4C1A31",
"8@	c #161416",
"9@	c #454543",
"0@	c #8D8D89",
"a@	c #D0CFCD",
"b@	c #D9D9D9",
"c@	c #6E7A8D",
"d@	c #357AAA",
"e@	c #317FB2",
"f@	c #327DAE",
"g@	c #327CAD",
"h@	c #254B64",
"i@	c #171215",
"j@	c #2D2E2C",
"k@	c #72706C",
"l@	c #B5B6B2",
"m@	c #E6E6E5",
"n@	c #DFDFDF",
"o@	c #B1B9BE",
"p@	c #2989A7",
"q@	c #02A0D1",
"r@	c #029FCF",
"s@	c #029ECF",
"t@	c #029ECE",
"u@	c #02A2D4",
"v@	c #058BB4",
"w@	c #0F2A34",
"x@	c #211F20",
"y@	c #545453",
"z@	c #9B9C95",
"A@	c #8E8E8E",
"B@	c #949D9D",
"C@	c #188CAE",
"D@	c #01A1D3",
"E@	c #039CCA",
"F@	c #0F313A",
"G@	c #171718",
"H@	c #3C3C3B",
"I@	c #838281",
"J@	c #C1C1BE",
"K@	c #ACACAC",
"L@	c #D1D1D0",
"M@	c #799FAE",
"N@	c #02A1D3",
"O@	c #0589B3",
"P@	c #08708D",
"Q@	c #086681",
"R@	c #0A6883",
"S@	c #0B6C86",
"T@	c #067FA4",
"U@	c #0396C3",
"V@	c #01A2D4",
"W@	c #0689B1",
"X@	c #0E3E4B",
"Y@	c #161617",
"Z@	c #393938",
"`@	c #6D6D6C",
" #	c #B5B4AF",
".#	c #E3E2E2",
"+#	c #A9A9A8",
"@#	c #859093",
"##	c #277890",
"$#	c #0893BD",
"%#	c #0397C4",
"&#	c #0497C5",
"*#	c #0782A7",
"=#	c #0C5266",
"-#	c #0F242B",
";#	c #191F20",
">#	c #1B2324",
",#	c #2B2B2A",
"'#	c #323432",
")#	c #2B383A",
"!#	c #1D4D5B",
"~#	c #107896",
"{#	c #0594C0",
"]#	c #0399C7",
"^#	c #0A6F8D",
"/#	c #0F2D37",
"(#	c #363535",
"_#	c #6B6A6A",
":#	c #A4A5A2",
"<#	c #D5D5D4",
"[#	c #E9E9E9",
"}#	c #C8C6C2",
"|#	c #959592",
"1#	c #53666A",
"2#	c #2C5962",
"3#	c #1B404A",
"4#	c #1C282A",
"5#	c #191E1F",
"6#	c #2A2F2E",
"7#	c #434643",
"8#	c #60615E",
"9#	c #6F6F6E",
"0#	c #7A7A74",
"a#	c #767673",
"b#	c #6E6E6E",
"c#	c #5A5A59",
"d#	c #3B5459",
"e#	c #244B56",
"f#	c #1F3B43",
"g#	c #1B2426",
"h#	c #292B2A",
"i#	c #3B413E",
"j#	c #71736E",
"k#	c #A5A6A1",
"l#	c #D4D5D3",
"m#	c #B5B5B5",
"n#	c #ABACA6",
"o#	c #848582",
"p#	c #636362",
"q#	c #5E5E5E",
"r#	c #646563",
"s#	c #7D7D7A",
"t#	c #959692",
"u#	c #B2B1AD",
"v#	c #BFC0BC",
"w#	c #CCC9C6",
"x#	c #C9C9C5",
"y#	c #BEC0BB",
"z#	c #ACABA7",
"A#	c #92928F",
"B#	c #777570",
"C#	c #626261",
"D#	c #6A6B68",
"E#	c #8B8B89",
"F#	c #BBB8B5",
"G#	c #A4A4A4",
"H#	c #B2B2B2",
"I#	c #C6C7C4",
"J#	c #B0B1AD",
"K#	c #B3B5B0",
"L#	c #C4C3BF",
"M#	c #CBCBC9",
"N#	c #D3D2D2",
"O#	c #BEBEBE",
"P#	c #C0C0C0",
"Q#	c #E1E1E0",
"R#	c #C1C0BC",
"S#	c #B2B3AF",
"T#	c #BCB9B6",
"U#	c #CFCDCB",
"V#	c #C7C7C6",
"W#	c #A5A5A5",
"X#	c #E3E3E2",
"Y#	c #AFAFAF",
"Z#	c #9B9B9B",
"`#	c #B3B3B3",
" $	c #EBEBEB",
"                                          . + @ # $                   ",
"                                    % & * = - ; > , '                 ",
"                                    ) ! ~ { ] ^ / ( _                 ",
"                                  : < [ ] ~ } | 1 2 3 4               ",
"                                5 6 [ [ [ ~ 7 8 9 0 a b               ",
"                                c ] ~ ~ ~ d e f g h _                 ",
"                                i ~ ~ ~ ~ j k l m n o                 ",
"                                p ~ [ q r s t u v w x                 ",
"                                y z A B C D E F G H                   ",
"            I J K L L M N O P Q R S T U V W X Y Z `  ...+.@.          ",
"        #.$.%.[ &.&.&.~ [ *.=.-.;.>.,.'.).{ [ ~ ~ ~ [ !.~.{.].^.      ",
"        /.(.&._.&.&.&.~ ~ _.:.- <.[.{ ~ _.[ [ ~ ~ [ [ ~ [ }.|.1.o     ",
"      2.[ [ { _.] { - _.~ ~ ~ { ~ - { ] ~ _._._.~ 3.[ ~ { [ 4.5.6.7.  ",
"    8.9.0.a.a.a.a.a.a.a.a.a.a.a.a.a.a.a.a.a.a.a.a.a.a.a.a.b.c.d.e.f.g.",
"  h.i.j.k.l.l.m.l.l.l.m.n.o.m.m.l.l.p.q.l.l.l.m.l.p.q.l.r.s.t.u.v.w.x.",
"  y.z.z.A.B.z.z.z.z.z.B.B.B.B.B.B.B.B.B.B.B.B.B.B.B.B.B.C.D.E.F.G.H.I.",
"  J.K.z.B.B.z.z.z.z.z.B.B.B.B.B.B.B.B.B.B.B.B.B.B.B.B.L.M.N.O.P.Q.R.  ",
"S.T.z.U.B.A.z.z.z.z.z.B.B.B.B.B.B.B.B.B.B.B.B.B.B.B.B.V.W.X.Y.Z.`.    ",
" +.+++++++++++++++++++++++++++++++++++++++++++++++++@+#+$+F.%+&+*+    ",
"=+-+-+;+>+>+;+;+;+;+;+>+>+>+>+>+>+>+>+>+>+>+>+>+>+>+,+'+)+!+~+{+      ",
"]+-+^+;+-+>+;+;+;+;+;+>+>+>+>+>+>+>+>+>+>+>+>+>+>+>+,+/+(+_+:+<+      ",
"[+;+^+;+>+}+;+;+;+;+;+>+>+>+>+>+>+}+|+>+>+>+>+>+>+>+1+2+3+4+H.b       ",
"5+6+-+;+>+7+;+;+;+;+;+>+>+>+>+>+>+8+|+>+>+>+>+>+>+>+>+9+0+a+H.b       ",
"b+c+d+d+d+d+d+d+d+d+d+d+d+d+d+d+d+d+d+d+d+d+d+d+d+e+d+f+g+h+i+j+      ",
"k+l+m+n+o+p+n+n+n+n+n+p+p+p+p+p+p+p+q+q+p+p+p+p+p+r+p+p+s+t+u+#       ",
"v+w+x+n+p+o+n+n+n+n+n+p+p+p+p+p+p+p+y+z+p+p+p+p+p+p+p+p+A+B+C+D+      ",
"E+F+p+x+p+p+n+n+n+n+n+p+p+p+p+p+p+p+p+p+p+p+p+p+p+p+p+p+p+G+H+I+J+K+  ",
"L+M+N+z+N+q+z+N+N+N+z+z+z+z+N+N+N+z+O+z+z+N+N+N+z+N+q+p+p+p+P+Q+R+S+T+",
"U+V+W+X+Y+Z+`+Y+Y+Y+X+`+`+`+Y+Y+ @X+.@`+`+Y+Y+Y+X+ @Z++@+@+@+@+@@@#@$@",
"  %@&@*@=@-@*@*@*@*@*@-@-@-@-@-@-@-@-@-@-@-@-@-@-@-@-@-@-@-@-@;@>@,@'@",
"  4 )@!@~@-@*@*@*@*@*@-@-@-@-@-@-@-@-@-@-@-@-@-@-@-@-@-@-@-@*@{@]@^@/@",
"  (@_@:@<@=@*@*@*@*@*@-@-@-@-@-@-@-@-@-@-@-@-@-@-@-@-@-@-@-@[@}@|@1@2@",
"    3@4@5@~@*@*@*@*@*@-@-@-@-@-@-@-@-@-@-@-@-@-@-@-@-@-@-@6@7@8@9@0@a@",
"      b@c@d@e@f@f@f@g@g@g@g@f@f@f@g@g@g@g@f@f@f@g@g@g@e@e@h@i@j@k@l@m@",
"      n@o@p@q@r@r@r@s@t@t@t@r@r@r@s@t@t@t@r@r@r@s@t@t@u@v@w@x@y@z@S+A@",
"        7.B@C@D@D@D@D@u@u@u@u@u@u@u@u@u@u@u@u@u@u@u@u@E@F@G@H@I@J@(@  ",
"        K@L@M@C@q@D@t@N@u@u@O@P@Q@R@S@T@U@V@u@u@u@u@W@X@Y@Z@`@ #.#(@  ",
"          +#`.@###$#%#&#*#=#-#;#>#,#'#)#!#~#{#]#U@^#/#G@(#_#:#<#j+    ",
"            [#}#|#1#2#3#4#5#6#7#8#9#0#a#b#c#d#e#f#g#h#i#j#k#l#K@      ",
"              m#`.n#o#p#q#r#s#t#u#v#w#x#y#z#A#B#C#q#D#E#F#&+G#        ",
"                H#H I#l@J#K#L#M#N#O#  P#O#Q#o R#S#J#T#U#V#W#          ",
"                    I.# X## Y#Z#            `#$ # X##  $              "};
