/* XPM */
static char * novell_xpm[] = {
"47 47 197 2",
"  	c None",
". 	c #DFEBDF",
"+ 	c #EFEBEF",
"@ 	c #DFEBEF",
"# 	c #EFDBEF",
"$ 	c #DFDBDF",
"% 	c #CFDBDF",
"& 	c #D7D3D7",
"* 	c #CFCBCF",
"= 	c #BEC3C7",
"- 	c #9EAAAE",
"; 	c #514161",
"> 	c #F7F3F7",
", 	c #EFEBFF",
"' 	c #8E698E",
") 	c #302830",
"! 	c #CFBACF",
"~ 	c #717D79",
"{ 	c #202030",
"] 	c #716171",
"^ 	c #202020",
"/ 	c #FFFFFF",
"( 	c #AEAAAE",
"_ 	c #616586",
": 	c #201030",
"< 	c #AEBABE",
"[ 	c #BEBABE",
"} 	c #616171",
"| 	c #101020",
"1 	c #BEAABE",
"2 	c #AEBAAE",
"3 	c #AEAABE",
"4 	c #D5D0D0",
"5 	c #F4F4F4",
"6 	c #C2B4B4",
"7 	c #C1AFAF",
"8 	c #C08585",
"9 	c #C2A3A3",
"0 	c #E6E4E4",
"a 	c #C07272",
"b 	c #CCC1C1",
"c 	c #C08F8F",
"d 	c #CF6969",
"e 	c #F2F2F2",
"f 	c #C76464",
"g 	c #FF3D3D",
"h 	c #E0DFDF",
"i 	c #D3D0D0",
"j 	c #EFEEEE",
"k 	c #F7F7F7",
"l 	c #D3CFCF",
"m 	c #D5D2D2",
"n 	c #DDDCDC",
"o 	c #FE4C4C",
"p 	c #D6D2D2",
"q 	c #FE0D0D",
"r 	c #BFA3A3",
"s 	c #080810",
"t 	c #FE0101",
"u 	c #D25B5B",
"v 	c #FF4242",
"w 	c #C67979",
"x 	c #FA1C1C",
"y 	c #FE0E0E",
"z 	c #EE4040",
"A 	c #CEC3C3",
"B 	c #D4CFCF",
"C 	c #FA1B1B",
"D 	c #C27E7E",
"E 	c #C6B5B5",
"F 	c #FE1010",
"G 	c #BF9898",
"H 	c #D3CDCD",
"I 	c #DF4545",
"J 	c #E64545",
"K 	c #D9D6D6",
"L 	c #AE9AAE",
"M 	c #515161",
"N 	c #FE0808",
"O 	c #FE0909",
"P 	c #D54B4B",
"Q 	c #ECEBEB",
"R 	c #C58484",
"S 	c #FE0707",
"T 	c #C77070",
"U 	c #E33232",
"V 	c #F52929",
"W 	c #EAE9E9",
"X 	c #D45E5E",
"Y 	c #F82525",
"Z 	c #D8D5D5",
"` 	c #D95858",
" .	c #ED2F2F",
"..	c #F0EFEF",
"+.	c #FC2222",
"@.	c #C2ABAB",
"#.	c #C2ADAD",
"$.	c #F12424",
"%.	c #D16060",
"&.	c #9EAA9E",
"*.	c #F72929",
"=.	c #C18D8D",
"-.	c #FF0D0D",
";.	c #E53838",
">.	c #DF5151",
",.	c #E34343",
"'.	c #DD4D4D",
").	c #FBFBFB",
"!.	c #C2AEAE",
"~.	c #CBBDBD",
"{.	c #C8BDBD",
"].	c #FE0A0A",
"^.	c #CC7A7A",
"/.	c #FF1010",
"(.	c #C18A8A",
"_.	c #FE2626",
":.	c #E93030",
"<.	c #F6F6F6",
"[.	c #F42525",
"}.	c #FEFEFE",
"|.	c #C7B4B4",
"1.	c #F61B1B",
"2.	c #E34848",
"3.	c #E53E3E",
"4.	c #ECECEC",
"5.	c #C0A4A4",
"6.	c #FE0606",
"7.	c #CBBFBF",
"8.	c #FCFCFC",
"9.	c #D35959",
"0.	c #FE0404",
"a.	c #E5E4E4",
"b.	c #FE2D2D",
"c.	c #D95656",
"d.	c #CABEBE",
"e.	c #C09595",
"f.	c #BFA4A4",
"g.	c #EEEDED",
"h.	c #9E9AAE",
"i.	c #CABDBD",
"j.	c #F52323",
"k.	c #DB5151",
"l.	c #C87575",
"m.	c #F61E1E",
"n.	c #E33C3C",
"o.	c #F8F8F8",
"p.	c #CABFBF",
"q.	c #FD0D0D",
"r.	c #C18484",
"s.	c #C37878",
"t.	c #FD0F0F",
"u.	c #C87777",
"v.	c #C48080",
"w.	c #F91D1D",
"x.	c #D05C5C",
"y.	c #BF7E7E",
"z.	c #BF7F7F",
"A.	c #9E929E",
"B.	c #C7B0B0",
"C.	c #C96666",
"D.	c #CDC4C4",
"E.	c #F36E6E",
"F.	c #BF9E9E",
"G.	c #E83F3F",
"H.	c #FE2F2F",
"I.	c #CA6565",
"J.	c #E3E0E0",
"K.	c #CE6F6F",
"L.	c #D6D3D3",
"M.	c #C17F7F",
"N.	c #EF3737",
"O.	c #F93434",
"P.	c #C17A7A",
"Q.	c #CC7575",
"R.	c #BF9090",
"S.	c #DFDDDD",
"T.	c #CC5858",
"U.	c #C5B6B6",
"V.	c #BF8989",
"W.	c #C09292",
"X.	c #8E929E",
"Y.	c #495971",
"Z.	c #96928E",
"`.	c #000000",
" +	c #8E8A8E",
".+	c #385D38",
"++	c #718A8E",
"@+	c #414141",
"#+	c #BEAAAE",
"$+	c #38FB30",
"%+	c #414161",
"&+	c #413051",
"*+	c #413041",
"=+	c #302041",
"-+	c #303051",
";+	c #696961",
">+	c #616161",
"                                                                                              ",
". + + + @ + + + @ + + + @ + + + @ + + + @ + + + @ + + + . # . $ $ $ % $ & & & * * * = & - ;   ",
"> @ + @ , @ + @ , @ + @ , @ + @ , @ + @ , @ + @ , @ + @ @ @ @ . $ . $ % % % * & * & * = ' )   ",
"> + @ + + + @ + + + @ + + + @ + + + @ + + + @ + + + @ # . $ . $ $ $ & & & * & * * * = ! ~ {   ",
"> @ , @ + @ , @ + @ , @ + @ , @ + @ , @ + @ , @ + @ @ @ @ . $ . $ % % % * & * = * = = = ] ^   ",
"> + + + @ / / / / / / / / / / / / / / / / / / / / / / / / / / / / / / / / / / / ( ! = = _ :   ",
"> @ + @ , / / / / / / / / / / / / / / / / / / / / / / / / / / / / / / / / / / / > = = < ] ^   ",
"> + @ + + / / / / / / / / / / / / / / / / / / / / / / / / / / / / / / / / / / / > [ [ [ } |   ",
"> @ , @ + / / / / / / / / / / / / / / / / / / / / / / / / / / / / / / / / / / / > < = < ] |   ",
"> + + + @ / / / / / / / / / / / / / / / / / / / / / / / / / / / / / / / / / / / > [ < 1 } |   ",
"> @ + @ , / / / / / / / / / / / / / / / / / / / / / / / / / / / / / / / / / / / > < [ 2 _ |   ",
"> + @ + + / / / / / / / / / / / / / / / / / / / / / / / / / / / / / / / / / / / > [ 2 1 } |   ",
"> @ , @ + / / / / / / / / / / / / / / / / / / / / / / / / / / / / / / / / / / / > 2 3 2 _ |   ",
"> + + + @ / / / / / / / / / / / / / / / / / / / / / / / / / / / / / / / / / / / > 1 ( ( } |   ",
"> @ + @ , / / / / / / / / / / / / / / / / / / / / / / / / / / / / / / / / / / / > 2 3 - _ |   ",
"> + @ + + 4 5 / / / 6 7 / / / / / / / / / / / / / / / / / / / / / 8 9 0 a b / / > ( ( ( } |   ",
"> @ , @ + c d e / / f g / / / h i j / k l e / / m n / j l l 5 / / o f p q r / / > - 3 - _ s   ",
"> + + + @ c t u j / f v / e w x y z A B C D / E F G H I F y J K / o f p q r / / > ( - L M |   ",
"> @ + @ , c N O P Q f v / R S T G U V W X Y Z `  ...u +.@.#.$.%./ o f p q r / / > - ( &._ s   ",
"> + @ + + c *.=.-.;.>.v / ,.'.)./ !.S ~.{.].^./.(./ _.F _._.F :.<.o f p q r / / > L &.L M |   ",
"> @ , @ + c [.}.|.1.t v / 2.3.4./ 5.6.7.8.9.0.V a./ b.c.d.d.e.f.}.o f p q r ..g.> - h.&._ s   ",
"> + + + @ c [./ / i.j.v / G N k.l.m.n.o./ p.q.r./ / s.t.u.v.w.x./ o f p q r y.z.> L A.h.M s   ",
"> @ + @ , B.C./ / / D.E./ }.F.G.H.I.J./ / / K.L./ / o.M.N.O.P.g./ Q.R.S.T.U.V.W.> &.h.X.Y.s   ",
"> + @ + + / / / / / / / / / / / / / / / / / / / / / / / / / / / / / / / / / / / > A.A.A.M s   ",
"> @ , @ + / / / / / / / / / / / / / / / / / / / / / / / / / / / / / / / / / / / > X.A.X.Y.s   ",
"> + + + . / / / / / / / / / / / / / / / / / / / / / / / / / / / / / / / / / / / > A.X.A.M s   ",
"> @ + @ @ / / / / / / / / / / / / / / / / / / / / / / / / / / / / / / / / / / / > X.A.Z.M s   ",
"> + . # . / / / / / / / / / / / / / / / / / / / / / / / / / / / / / / / / / / / > A.Z.Z.M s   ",
"> @ @ @ $ / / / / / / / / / / / / / / / / / / / / / / / / / / / / / / / / / / / > Z.X.Z.; `.  ",
"> # . $ $ / / / / / / / / / / / / / / / / / / / / / / / / / / / / / / / / / / / > A. + +.+s   ",
"> . $ . $ / / / / / / / / / / / / / / / / / / / / / / / / / / / / / / / / / / / > Z. +++; `.  ",
"> $ . $ $ ( > > > > > > > > > > > > > > > > > > > > > > > > > > > > > > > > > > >  + +' @+`.  ",
"> % $ % $ % * % * = * = * = = = = < [ < 1 2 3 2 3 ( 3 - ( - h.&.h.X.A.X.A.`.`.`. +++ +++; `.  ",
"> $ % $ & & & * * * = ! = ! [ [ [ 1 < 1 2 #+( ( ( ( ( L &.L A.h.A.A.X.A.Z.`.$+$+[ ' ~ ' @+`.  ",
"> % $ % * & * & * = * = = = = < [ < < 2 3 2 ( - ( - ( &.h.&.h.X.A.X.A.Z.X.Z.[ < = ++' ~ %+`.  ",
"> ( ~ ] ~ ] ~ ] ] ] } ] } ] } ] } _ } _ } _ M _ M _ M _ M Y.M ; M ; .+; .+; @+; @+; @+&+@+`.  ",
"~ `.`.`.`.`.`.`.`.`.`.`.`.`.`.`.`.`.`.`.`.`.`.`.`.`.`.`.`.`.`.`.`.`.`.`.`.`.`.`.`.`.`.`.`.`.  ",
"                    > } @+.+@+.+) = < L X.' } M @+*+) { ^ | ^ =+) *+-+*+;+                    ",
"                  > ( ;+} ;+} ;+M -+} ++' ++} M @+-+-+| : { -+.+} ;+_ } { ;+                  ",
"                > $ ~ '  + +~ '  +' >+>+@+&+-+*+-+*+-+&+.+M ~ '  + +Z.Z.} ) ;+                ",
"              > > &.h.&.h.&.h.- L &.h.- ( - ( - ( - ( - ( - 3 - ( - 3 2 ( } { ;+              ",
"            > > > > > > > > > > > > > > > > > > > > > > > > > > > > > > > > } )               ",
"            > ( ( ( ( ( ( ( ( ( ( ( ( ( ( ( ( ( ( ( ( ( ( ( ( ( ( ( ( ( ( ( ( `.              ",
"            > ( ( ( ( ( ( ( ( ( ( ( ( ( ( ( ( ( ( ( ( ( ( ( ( ( ( ( ( ( ( ( ( `.              ",
"            _ `.`.`.`.`.`.`.`.`.`.`.`.`.`.`.`.`.`.`.`.`.`.`.`.`.`.`.`.`.`.`.`.{               ",
"            (  +>+>+>+>+>+;+>+>+>+;+>+;+>+;+>+;+;+;+>+] ;+;+;+] ;+] _ ] ;+] _ (               ",
"                                                                                              "};
