/* XPM */
static char * sco_xpm[] = {
"47 47 853 2",
"  	c None",
". 	c #DFEBDF",
"+ 	c #EFEBEF",
"@ 	c #DFEBEF",
"# 	c #EFDBEF",
"$ 	c #DFDBDF",
"% 	c #CFDBDF",
"& 	c #D7D3D7",
"* 	c #CFCBCF",
"= 	c #BEC3C7",
"- 	c #9EAAAE",
"; 	c #514161",
"> 	c #F7F3F7",
", 	c #EFEBFF",
"' 	c #8E698E",
") 	c #302830",
"! 	c #CFBACF",
"~ 	c #717D79",
"{ 	c #202030",
"] 	c #716171",
"^ 	c #202020",
"/ 	c #FDFDFD",
"( 	c #FCFCFC",
"_ 	c #F1F1EE",
": 	c #E3DED9",
"< 	c #F9CD0C",
"[ 	c #FDC605",
"} 	c #FCC700",
"| 	c #FDC207",
"1 	c #FDC508",
"2 	c #F8C908",
"3 	c #F8C90D",
"4 	c #FDC614",
"5 	c #F4C907",
"6 	c #FACC04",
"7 	c #FCC803",
"8 	c #FAC601",
"9 	c #F8CB09",
"0 	c #F3C709",
"a 	c #EAC812",
"b 	c #E0C719",
"c 	c #E0C618",
"d 	c #EBC512",
"e 	c #EFC417",
"f 	c #F9C906",
"g 	c #FCD339",
"h 	c #F9F8FA",
"i 	c #F2FCF7",
"j 	c #EDF2F9",
"k 	c #EFF0F9",
"l 	c #F9F9FD",
"m 	c #FCFCFA",
"n 	c #FDFBF8",
"o 	c #AEAAAE",
"p 	c #616586",
"q 	c #201030",
"r 	c #FBFBFB",
"s 	c #E2E2DF",
"t 	c #C5C0BC",
"u 	c #F3C807",
"v 	c #FDC504",
"w 	c #FBC701",
"x 	c #FDC200",
"y 	c #FDC700",
"z 	c #FCCB01",
"A 	c #FCCA00",
"B 	c #FEC600",
"C 	c #FDC808",
"D 	c #FCC50C",
"E 	c #FBC502",
"F 	c #F3C805",
"G 	c #CEAB1F",
"H 	c #9E8334",
"I 	c #846D45",
"J 	c #725F49",
"K 	c #826D47",
"L 	c #A28732",
"M 	c #CBA11A",
"N 	c #F5C107",
"O 	c #FBCE3B",
"P 	c #FAF6FB",
"Q 	c #EBF9F9",
"R 	c #BCC3D8",
"S 	c #BDC0D7",
"T 	c #E4E7F0",
"U 	c #FCFDFD",
"V 	c #FDFDFC",
"W 	c #AEBABE",
"X 	c #F9F9F9",
"Y 	c #D8D8D5",
"Z 	c #B1ABA7",
"` 	c #F1C706",
" .	c #FCC404",
"..	c #FBC601",
"+.	c #FDC600",
"@.	c #FDC702",
"#.	c #FCC403",
"$.	c #FEC405",
"%.	c #FEC304",
"&.	c #FEC603",
"*.	c #F4C401",
"=.	c #D4B40F",
"-.	c #918131",
";.	c #515B4B",
">.	c #3D5163",
",.	c #324667",
"'.	c #485565",
").	c #636751",
"!.	c #968531",
"~.	c #DFBC11",
"{.	c #F2D432",
"].	c #FBFCEF",
"^.	c #EBF4F1",
"/.	c #A8AAC9",
"(.	c #AFB4D2",
"_.	c #DCE1F0",
":.	c #FAFDFD",
"<.	c #BEBABE",
"[.	c #616171",
"}.	c #101020",
"|.	c #FEFEFE",
"1.	c #F8F8F8",
"2.	c #D7D7D5",
"3.	c #ADA8A3",
"4.	c #F3C908",
"5.	c #FCC600",
"6.	c #FDC701",
"7.	c #FDC405",
"8.	c #FCC208",
"9.	c #FBC40A",
"0.	c #FAC404",
"a.	c #F5C106",
"b.	c #D6AC11",
"c.	c #9F892B",
"d.	c #61624E",
"e.	c #3A4D5B",
"f.	c #3A506B",
"g.	c #3C4D66",
"h.	c #545F58",
"i.	c #6E723F",
"j.	c #9B8A2C",
"k.	c #DAB411",
"l.	c #F0CF36",
"m.	c #FBFAF3",
"n.	c #EEF8F9",
"o.	c #B6B8D8",
"p.	c #B8BEDC",
"q.	c #DEE4F2",
"r.	c #F9FDFD",
"s.	c #FBFDFD",
"t.	c #FFFFFF",
"u.	c #AEA9A4",
"v.	c #F5CA09",
"w.	c #FCC701",
"x.	c #FEC700",
"y.	c #FEC701",
"z.	c #FAC702",
"A.	c #F6C703",
"B.	c #E7BE0D",
"C.	c #CBA41E",
"D.	c #A08533",
"E.	c #6F6847",
"F.	c #465266",
"G.	c #31436F",
"H.	c #38496D",
"I.	c #44505F",
"J.	c #53584E",
"K.	c #646245",
"L.	c #827342",
"M.	c #B4971F",
"N.	c #DBC042",
"O.	c #FBFAFA",
"P.	c #F5FCFB",
"Q.	c #DBDCF1",
"R.	c #D7DEF0",
"S.	c #ECF2F8",
"T.	c #FAFDFC",
"U.	c #FCFEFD",
"V.	c #BEAABE",
"W.	c #D6D6D4",
"X.	c #F6CA09",
"Y.	c #FDC403",
"Z.	c #FDC703",
"`.	c #FEC800",
" +	c #F4C50B",
".+	c #E1BC12",
"++	c #BEA426",
"@+	c #918038",
"#+	c #6C6848",
"$+	c #4D5A4F",
"%+	c #3E5069",
"&+	c #344571",
"*+	c #354362",
"=+	c #49525B",
"-+	c #585B4E",
";+	c #68694C",
">+	c #80764B",
",+	c #A68E21",
"'+	c #CCB344",
")+	c #FAF8FC",
"!+	c #F7FEF7",
"~+	c #F7F8FD",
"{+	c #F4F9FD",
"]+	c #F7FCFA",
"^+	c #FAFCF8",
"/+	c #FEFEFB",
"(+	c #AEBAAE",
"_+	c #FCFCFB",
":+	c #D7D6D4",
"<+	c #ADA7A3",
"[+	c #F6CA0A",
"}+	c #FDC404",
"|+	c #FBC702",
"1+	c #F7C604",
"2+	c #EDC00F",
"3+	c #D5AE1D",
"4+	c #AE9126",
"5+	c #8C7C40",
"6+	c #696549",
"7+	c #515C53",
"8+	c #3F5355",
"9+	c #3B4E61",
"0+	c #3B4C67",
"a+	c #313F5D",
"b+	c #50565C",
"c+	c #62674D",
"d+	c #717544",
"e+	c #897E44",
"f+	c #AE9226",
"g+	c #D0B249",
"h+	c #FBF8FA",
"i+	c #F8FEF4",
"j+	c #FBFCFC",
"k+	c #FBFEFC",
"l+	c #FCFEF8",
"m+	c #FBFBF5",
"n+	c #FEFEFA",
"o+	c #FDFDFA",
"p+	c #F8F9F5",
"q+	c #D7D5D4",
"r+	c #B1A9A8",
"s+	c #F5C70A",
"t+	c #FCC308",
"u+	c #FBC804",
"v+	c #F3C40A",
"w+	c #DCB30F",
"x+	c #BC9C1F",
"y+	c #9E8934",
"z+	c #7E723F",
"A+	c #6A664E",
"B+	c #575A54",
"C+	c #47545C",
"D+	c #3F4F60",
"E+	c #3E4C5D",
"F+	c #3F4E65",
"G+	c #2C3B69",
"H+	c #535959",
"I+	c #5B5D50",
"J+	c #747244",
"K+	c #8D793C",
"L+	c #AF9127",
"M+	c #D7B149",
"N+	c #FCFAF8",
"O+	c #FCFDF6",
"P+	c #FDFCFD",
"Q+	c #FDFDFB",
"R+	c #AEAABE",
"S+	c #FDFDF9",
"T+	c #D7D5D6",
"U+	c #B2AAA9",
"V+	c #F3C608",
"W+	c #FCC406",
"X+	c #FBC904",
"Y+	c #F2C00C",
"Z+	c #D8AC0D",
"`+	c #B9961D",
" @	c #A58C32",
".@	c #8E7E3A",
"+@	c #61674F",
"@@	c #4F5B5B",
"#@	c #445262",
"$@	c #3F4C60",
"%@	c #35496D",
"&@	c #213770",
"*@	c #485959",
"=@	c #444A5B",
"-@	c #686C50",
";@	c #8A803D",
">@	c #AC9827",
",@	c #D5B64B",
"'@	c #FCFBFB",
")@	c #FCFDF9",
"!@	c #FDFBFD",
"~@	c #D7D5D7",
"{@	c #B1AAA9",
"]@	c #F2C606",
"^@	c #FCC402",
"/@	c #FBC901",
"(@	c #FBC306",
"_@	c #F1BE07",
":@	c #E2B814",
"<@	c #CBAB21",
"[@	c #A58B21",
"}@	c #83783B",
"|@	c #6D6B4A",
"1@	c #5E5F51",
"2@	c #565959",
"3@	c #565459",
"4@	c #2F4071",
"5@	c #2C4B6B",
"6@	c #3C5163",
"7@	c #4E5159",
"8@	c #696B4B",
"9@	c #817C3A",
"0@	c #A08F25",
"a@	c #C9AE4D",
"b@	c #F8F9FD",
"c@	c #FBFDFB",
"d@	c #FCFDFA",
"e@	c #D7D6D7",
"f@	c #B1ABA8",
"g@	c #FBCB00",
"h@	c #FDC202",
"i@	c #FCC104",
"j@	c #F6C00B",
"k@	c #E8B911",
"l@	c #D3A710",
"m@	c #C5A51C",
"n@	c #BBA121",
"o@	c #B3A024",
"p@	c #B2A22A",
"q@	c #B09F28",
"r@	c #5A565D",
"s@	c #4F6754",
"t@	c #696C45",
"u@	c #B09D32",
"v@	c #BCA922",
"w@	c #BEA61E",
"x@	c #CBAE13",
"y@	c #E0C041",
"z@	c #F7FBF9",
"A@	c #F8FDFC",
"B@	c #FCFDF8",
"C@	c #D6D7D6",
"D@	c #AFABA8",
"E@	c #F2C808",
"F@	c #FCC607",
"G@	c #F8C801",
"H@	c #FDC400",
"I@	c #F9C806",
"J@	c #F1C60A",
"K@	c #ECC50F",
"L@	c #EFC50D",
"M@	c #EFC50B",
"N@	c #ECC708",
"O@	c #EFC707",
"P@	c #F0C805",
"Q@	c #8A6E44",
"R@	c #40415F",
"S@	c #A99A1D",
"T@	c #F3C50A",
"U@	c #F4C405",
"V@	c #F4C110",
"W@	c #F6C811",
"X@	c #F7CD40",
"Y@	c #F9FCF7",
"Z@	c #F8FDF7",
"`@	c #FCFDFC",
" #	c #FCFDF7",
".#	c #080810",
"+#	c #D5D8D4",
"@#	c #ACA9A5",
"##	c #F0C508",
"$#	c #FBC30D",
"%#	c #F8C70C",
"&#	c #FCC905",
"*#	c #FDCD00",
"=#	c #FDCC00",
"-#	c #FBC902",
";#	c #FAC907",
">#	c #FBC30A",
",#	c #FCC609",
"'#	c #FAC904",
")#	c #F8C900",
"!#	c #FDCB00",
"~#	c #A98C28",
"{#	c #333B70",
"]#	c #CEBD16",
"^#	c #FBC201",
"/#	c #F7C701",
"(#	c #FCC505",
"_#	c #FACB06",
":#	c #F6CE34",
"<#	c #F9FDF5",
"[#	c #F9FDF4",
"}#	c #FCFDF5",
"|#	c #FCFDF4",
"1#	c #AE9AAE",
"2#	c #515161",
"3#	c #D7DAD3",
"4#	c #A9A6A1",
"5#	c #E4BA02",
"6#	c #EDB506",
"7#	c #EAB805",
"8#	c #E6B903",
"9#	c #E3B709",
"0#	c #E3B512",
"a#	c #E3B60F",
"b#	c #E2B604",
"c#	c #E5B80A",
"d#	c #E3B80B",
"e#	c #E1B90C",
"f#	c #E3B810",
"g#	c #E4B112",
"h#	c #C4B41C",
"i#	c #102B84",
"j#	c #927E35",
"k#	c #EDB61A",
"l#	c #D8BB11",
"m#	c #E2B313",
"n#	c #DFBB0C",
"o#	c #E7C240",
"p#	c #FBFDF2",
"q#	c #FDFBF4",
"r#	c #FCFDF3",
"s#	c #9EAA9E",
"t#	c #F5FDFD",
"u#	c #FDFDF8",
"v#	c #F5F4F6",
"w#	c #DCD6E5",
"x#	c #A3A7C3",
"y#	c #2C4175",
"z#	c #19377C",
"A#	c #183A85",
"B#	c #173B72",
"C#	c #1B3A7E",
"D#	c #1E397A",
"E#	c #1C386C",
"F#	c #203983",
"G#	c #203587",
"H#	c #1E397D",
"I#	c #1A3B7D",
"J#	c #193987",
"K#	c #19377E",
"L#	c #203C7A",
"M#	c #1A3379",
"N#	c #1B3277",
"O#	c #1F3978",
"P#	c #1D3880",
"Q#	c #1F3B86",
"R#	c #283C82",
"S#	c #566093",
"T#	c #F3F8FD",
"U#	c #F7FAFA",
"V#	c #F8FBFA",
"W#	c #F9FBFB",
"X#	c #F9FCFB",
"Y#	c #FBFBF0",
"Z#	c #FBF9EC",
"`#	c #FBFDFC",
" $	c #EEE5D8",
".$	c #C5C2BD",
"+$	c #9AA3B2",
"@$	c #92A1B9",
"#$	c #92A3B6",
"$$	c #92A5B9",
"%$	c #8E9AC1",
"&$	c #9AA2C9",
"*$	c #96A1B7",
"=$	c #92A2B7",
"-$	c #9AA1BA",
";$	c #98A3AE",
">$	c #95A2AF",
",$	c #96A1BA",
"'$	c #9BA1B6",
")$	c #96A1B4",
"!$	c #969FC2",
"~$	c #969AC2",
"{$	c #97A1BA",
"]$	c #92A2B4",
"^$	c #94A8BF",
"/$	c #ADBCD4",
"($	c #C9D2E2",
"_$	c #F8FBFB",
":$	c #FAFBF6",
"<$	c #FAFAF5",
"[$	c #F9FAFA",
"}$	c #F9F9FC",
"|$	c #F9F8F7",
"1$	c #F5F3F3",
"2$	c #9E9AAE",
"3$	c #FCFBF8",
"4$	c #F7F9F9",
"5$	c #EDF4F8",
"6$	c #E8E3DB",
"7$	c #D9D9D4",
"8$	c #D5D9E0",
"9$	c #D3D7DE",
"0$	c #DBDED7",
"a$	c #D9DDD6",
"b$	c #DDD9E1",
"c$	c #E0D8E1",
"d$	c #DCD9D7",
"e$	c #D8DFD7",
"f$	c #D5D7E1",
"g$	c #D2D6DA",
"h$	c #D5D9DC",
"i$	c #D4D0E0",
"j$	c #E2D7E1",
"k$	c #E0DDDD",
"l$	c #E5E0E9",
"m$	c #E7DCEA",
"n$	c #E0DAE0",
"o$	c #D7DBD9",
"p$	c #D4E0DE",
"q$	c #DBE8E4",
"r$	c #E8F4F1",
"s$	c #F1F6FA",
"t$	c #F8F8F3",
"u$	c #F9F9ED",
"v$	c #FAF8FB",
"w$	c #F8F8FC",
"x$	c #F5F6FC",
"y$	c #9E929E",
"z$	c #FDFBFC",
"A$	c #FBFAF2",
"B$	c #F3F3F7",
"C$	c #DAE0F1",
"D$	c #B7C6D9",
"E$	c #ACB6D3",
"F$	c #9EABC9",
"G$	c #A0ADCF",
"H$	c #AFB7D5",
"I$	c #E0E4EC",
"J$	c #F2F2E8",
"K$	c #F9F4EB",
"L$	c #F4EDEB",
"M$	c #E6E3EA",
"N$	c #C9D0DF",
"O$	c #AEBBDA",
"P$	c #A1B3C7",
"Q$	c #A7B9CA",
"R$	c #AFBAD2",
"S$	c #C6C9D7",
"T$	c #F1F1E8",
"U$	c #F8F5E9",
"V$	c #F5EFEA",
"W$	c #E7E4E8",
"X$	c #CED4E0",
"Y$	c #B4C0D9",
"Z$	c #A7BACE",
"`$	c #AABDCF",
" %	c #BBC7E1",
".%	c #D4D8E9",
"+%	c #F0F4F2",
"@%	c #F4F7F6",
"#%	c #F6F6F6",
"$%	c #F5F5F7",
"%%	c #F1F5F7",
"&%	c #8E929E",
"*%	c #495971",
"=%	c #FCF9FA",
"-%	c #F3F3EA",
";%	c #D1D5E4",
">%	c #7D89B9",
",%	c #4C6593",
"'%	c #596FAA",
")%	c #5972A0",
"!%	c #5A719F",
"~%	c #5A6A9A",
"{%	c #BCC6DC",
"]%	c #F8FAF5",
"^%	c #F1F4EC",
"/%	c #D7DDE9",
"(%	c #9CA5CB",
"_%	c #6976A9",
":%	c #586CAA",
"<%	c #5C76A8",
"[%	c #5974A2",
"}%	c #5B71A4",
"|%	c #7B8AAE",
"1%	c #F0F8F5",
"2%	c #F0F6EE",
"3%	c #DDE5EC",
"4%	c #A5AECE",
"5%	c #727EAE",
"6%	c #616DA9",
"7%	c #6273AA",
"8%	c #5C70A0",
"9%	c #5B6AA4",
"0%	c #6B75AB",
"a%	c #ADB8D7",
"b%	c #E3EBF5",
"c%	c #F7F8F4",
"d%	c #F8F7F1",
"e%	c #F1F5F3",
"f%	c #E3E7DF",
"g%	c #97A1BE",
"h%	c #253883",
"i%	c #1E3F88",
"j%	c #7E90C5",
"k%	c #95ABC5",
"l%	c #99ADC6",
"m%	c #8D98BB",
"n%	c #CCD1E1",
"o%	c #F4F5ED",
"p%	c #DDE5E7",
"q%	c #8496BE",
"r%	c #33468A",
"s%	c #495F94",
"t%	c #7F8BB7",
"u%	c #9AA8C6",
"v%	c #95A6C4",
"w%	c #8F9EC4",
"x%	c #99A3BE",
"y%	c #EFF5ED",
"z%	c #DBE7E6",
"A%	c #9CAFCE",
"B%	c #3B4F8C",
"C%	c #455990",
"D%	c #828EB8",
"E%	c #9DA4CC",
"F%	c #919CBF",
"G%	c #62749E",
"H%	c #2B3F7E",
"I%	c #43549C",
"J%	c #ACB9DC",
"K%	c #F5F7F7",
"L%	c #F9F6F1",
"M%	c #F3F4F4",
"N%	c #F7F5F3",
"O%	c #8995B4",
"P%	c #263A89",
"Q%	c #18388D",
"R%	c #6D7DB0",
"S%	c #97A9C4",
"T%	c #B7CADA",
"U%	c #D4DEEF",
"V%	c #F3EEF2",
"W%	c #ECE9DD",
"X%	c #BFC9D6",
"Y%	c #364C8B",
"Z%	c #162C7A",
"`%	c #9FB5CE",
" &	c #DDDDE1",
".&	c #E7E4E0",
"+&	c #E1E1E0",
"@&	c #E7E4EF",
"#&	c #E7E3EA",
"$&	c #F0EFDF",
"%&	c #BECAD4",
"&&	c #4D659E",
"*&	c #183175",
"=&	c #8CA1C3",
"-&	c #DAE2E5",
";&	c #E3E1E2",
">&	c #CFD2D4",
",&	c #A4B5B8",
"'&	c #4F6996",
")&	c #0D267E",
"!&	c #6A7AB4",
"~&	c #F1F7F9",
"{&	c #F8F5F2",
"]&	c #F5F3F4",
"^&	c #F9F5F2",
"/&	c #DCDCD8",
"(&	c #ABB2C2",
"_&	c #6876A4",
":&	c #3B4E8C",
"<&	c #344F90",
"[&	c #3D5795",
"}&	c #5A78A8",
"|&	c #9CB1CE",
"1&	c #EBE4EC",
"2&	c #E2DED3",
"3&	c #A0ACC2",
"4&	c #152F7B",
"5&	c #223B85",
"6&	c #DFECEE",
"7&	c #F5F6E9",
"8&	c #F8F4ED",
"9&	c #F4EFEE",
"0&	c #FAF3F6",
"a&	c #FCF2F6",
"b&	c #EAE3D3",
"c&	c #A2AAC6",
"d&	c #25408C",
"e&	c #213F81",
"f&	c #C4D4E3",
"g&	c #F5F8ED",
"h&	c #F6F2E9",
"i&	c #E5E1DA",
"j&	c #B9C4B3",
"k&	c #768DA9",
"l&	c #07217C",
"m&	c #435898",
"n&	c #EDF8F8",
"o&	c #F6F7F4",
"p&	c #F4F3F0",
"q&	c #96928E",
"r&	c #F9F8F8",
"s&	c #E8E8E7",
"t&	c #CFD2D3",
"u&	c #B5B9C6",
"v&	c #959AB0",
"w&	c #6E81A4",
"x&	c #4D6192",
"y&	c #264384",
"z&	c #37528E",
"A&	c #AFB1D2",
"B&	c #D5D9CE",
"C&	c #8C9EB4",
"D&	c #0F2E7D",
"E&	c #1E3B8A",
"F&	c #D6E8F1",
"G&	c #F8FDF1",
"H&	c #FCFAF4",
"I&	c #F8F6F5",
"J&	c #FCF9F8",
"K&	c #E3DCC9",
"L&	c #999FB9",
"M&	c #20398B",
"N&	c #203E8B",
"O&	c #C6D6E9",
"P&	c #F8FCF0",
"Q&	c #F9F8F0",
"R&	c #F1EBE8",
"S&	c #BFC5BD",
"T&	c #7C8CB3",
"U&	c #0A1F7E",
"V&	c #475C99",
"W&	c #ECF8FB",
"X&	c #F7F7FA",
"Y&	c #F5F3F6",
"Z&	c #F9FCFD",
"`&	c #F2F5F7",
" *	c #E3E5E6",
".*	c #DADDE0",
"+*	c #CCCFD4",
"@*	c #B5BCC0",
"#*	c #98A0B2",
"$*	c #3E5395",
"%*	c #0C277A",
"&*	c #7B8ABA",
"**	c #D0D6D0",
"=*	c #97A8B7",
"-*	c #274488",
";*	c #0C2579",
">*	c #8CA4CF",
",*	c #E2EDF1",
"'*	c #F6FCF8",
")*	c #F3F9F8",
"!*	c #F4FBF9",
"~*	c #E5EFE8",
"{*	c #E2DDD2",
"]*	c #A0A4B8",
"^*	c #344A90",
"/*	c #0E277C",
"(*	c #98ACD1",
"_*	c #EAF6F4",
":*	c #F6FAF9",
"<*	c #ECECF3",
"[*	c #B7BFCF",
"}*	c #5C69A6",
"|*	c #11207A",
"1*	c #798AB8",
"2*	c #F2FAFD",
"3*	c #F7F4FC",
"4*	c #F7F5FD",
"5*	c #000000",
"6*	c #FAFCF9",
"7*	c #F3F8FA",
"8*	c #B8C0CD",
"9*	c #8A96AE",
"0*	c #A3B3CE",
"a*	c #9BA5C8",
"b*	c #7A83AB",
"c*	c #2F4291",
"d*	c #1A348D",
"e*	c #99ABD1",
"f*	c #DDDDDD",
"g*	c #B3BABF",
"h*	c #61759D",
"i*	c #21317B",
"j*	c #324390",
"k*	c #7281B4",
"l*	c #A1AFD9",
"m*	c #A4B2D8",
"n*	c #94A3C0",
"o*	c #A7B7C8",
"p*	c #E5E3E2",
"q*	c #B4B7B9",
"r*	c #697B9F",
"s*	c #1A2F7A",
"t*	c #455797",
"u*	c #91A1C1",
"v*	c #BAC6E0",
"w*	c #ACB7D4",
"x*	c #6C7B9E",
"y*	c #2B3E7C",
"z*	c #455699",
"A*	c #BECCE2",
"B*	c #F6F9F9",
"C*	c #F6F4F7",
"D*	c #F5F5FB",
"E*	c #8E8A8E",
"F*	c #385D38",
"G*	c #F8F7F0",
"H*	c #E6EAED",
"I*	c #ADB9CF",
"J*	c #586D94",
"K*	c #3B5589",
"L*	c #394C92",
"M*	c #333D80",
"N*	c #3C4D98",
"O*	c #7188C5",
"P*	c #DEE9F0",
"Q*	c #F1EAEF",
"R*	c #D1CFCA",
"S*	c #A7ACB7",
"T*	c #777DAF",
"U*	c #454A97",
"V*	c #30418A",
"W*	c #364A8E",
"X*	c #405290",
"Y*	c #586797",
"Z*	c #A8B6D2",
"`*	c #F1F0F4",
" =	c #CCCDC6",
".=	c #A9B7B9",
"+=	c #7383AD",
"@=	c #475495",
"#=	c #414D93",
"$=	c #4A579A",
"%=	c #46558D",
"&=	c #3B4F7C",
"*=	c #5B71A1",
"==	c #ADBFDE",
"-=	c #E8F2F6",
";=	c #F6F5F3",
">=	c #F9F6F3",
",=	c #F4F5F5",
"'=	c #718A8E",
")=	c #414141",
"!=	c #BEAAAE",
"~=	c #38FB30",
"{=	c #414161",
"]=	c #413051",
"^=	c #413041",
"/=	c #302041",
"(=	c #303051",
"_=	c #696961",
":=	c #616161",
"                                                                                              ",
". + + + @ + + + @ + + + @ + + + @ + + + @ + + + @ + + + . # . $ $ $ % $ & & & * * * = & - ;   ",
"> @ + @ , @ + @ , @ + @ , @ + @ , @ + @ , @ + @ , @ + @ @ @ @ . $ . $ % % % * & * & * = ' )   ",
"> + @ + + + @ + + + @ + + + @ + + + @ + + + @ + + + @ # . $ . $ $ $ & & & * & * * * = ! ~ {   ",
"> @ , @ + @ , @ + @ , @ + @ , @ + @ , @ + @ , @ + @ @ @ @ . $ . $ % % % * & * = * = = = ] ^   ",
"> + + + @ / / / / ( _ : < [ } | 1 2 3 4 5 6 7 8 9 0 a b c d e f g h i j k l m n o ! = = p q   ",
"> @ + @ , / / / / r s t u v w x y z A B C D E F G H I J K L M N O P Q R S T U V > = = W ] ^   ",
"> + @ + + / / / / X Y Z `  ...+.y @.#.$.%.&.*.=.-.;.>.,.'.).!.~.{.].^./.(._.:.U > <.<.<.[.}.  ",
"> @ , @ + |./ / / 1.2.3.4. .w 5.6.7.8.9.0.a.b.c.d.e.f.g.h.i.j.k.l.m.n.o.p.q.r.s.> W = W ] }.  ",
"> + + + @ t.|./ |.1.2.u.v.#.} w.x.y.z.A.B.C.D.E.F.G.H.I.J.K.L.M.N.O.P.Q.R.S.T.U.> <.W V.[.}.  ",
"> @ + @ , t.|.( / 1.W.3.X.Y.} Z.`.7  +.+++@+#+$+%+&+*+=+-+;+>+,+'+)+!+~+{+]+^+/+> W <.(+p }.  ",
"> + @ + + |.|.( _+1.:+<+[+}+} |+1+2+3+4+5+6+7+8+9+0+a+b+c+d+e+f+g+h+i+j+k+l+m+n+> <.(+V.[.}.  ",
"> @ , @ + / / V o+p+q+r+s+t+u+v+w+x+y+z+A+B+C+D+E+F+G+H+I+J+K+L+M+N+O+P+/ V Q+V > (+R+(+p }.  ",
"> + + + @ / / V S+p+T+U+V+W+X+Y+Z+`+ @.@J++@@@#@$@%@&@*@=@-@;@>@,@'@)@!@/ / V ( > V.o o [.}.  ",
"> @ + @ , / / V S+p+~@{@]@^@/@(@_@:@<@[@}@|@1@2@3@4@5@6@7@8@9@0@a@b@c@P+/ / o+d@> (+R+- p }.  ",
"> + @ + + / / V S+p+e@f@4.Z.g@h@i@j@k@l@m@n@o@p@q@r@s@t@u@v@w@x@y@z@A@/ V o+S+B@> o o o [.}.  ",
"> @ , @ + / / V S+p+C@D@E@F@G@H@y I@J@K@L@M@N@O@P@Q@R@S@T@U@V@W@X@Y@Z@`@o+S+ #O+> - R+- p .#  ",
"> + + + @ / / V S+p++#@###$#%#&#*#=#-#;#>#,#'#)#!#~#{#]#^#/#(#_#:#<#[#Q+S+B@}#|#> o - 1#2#}.  ",
"> @ + @ , / / V S+p+3#4#5#6#7#8#9#0#a#b#c#d#e#f#g#h#i#j#k#l#m#n#o#T.p#q#B@ #}#r#> - o s#p .#  ",
"> + @ + + t#U u#q#v#w#x#y#z#A#B#C#D#E#F#G#H#I#J#K#L#M#N#O#P#Q#R#S#T#U#V#W#X#Y#Z#> 1#s#1#2#}.  ",
"> @ , @ + :.`@u#u#`# $.$+$@$#$$$%$&$*$=$-$;$>$,$'$)$!$~${$]$^$/$($_$:$<$[$}$|$1$> - 2$s#p .#  ",
"> + + + @ P+u#3$4$5$6$7$8$9$0$a$b$c$d$e$f$g$h$i$j$k$l$m$n$o$p$q$r$s$t$u$1.v$w$x$> 1#y$2$2#.#  ",
"> @ + @ , z$A$B$C$D$E$F$G$H$I$J$K$L$M$N$O$P$Q$R$S$T$U$V$W$X$Y$Z$`$ %.%+%@%#%$%%%> s#2$&%*%.#  ",
"> + @ + + =%-%;%>%,%'%)%!%~%{%]%^%/%(%_%:%<%[%}%|%1%2%3%4%5%6%7%8%9%0%a%b%c%d%e%> y$y$y$2#.#  ",
"> @ , @ + |$f%g%h%i%j%k%l%m%n%o%p%q%r%s%t%u%v%w%x%y%z%A%B%C%D%E%F%G%H%I%J%K%L%M%> &%y$&%*%.#  ",
"> + + + . N%a$O%P%Q%R%S%T%U%V%W%X%Y%Z%`% &.&+&@&#&$&%&&&*&=&-&;&>&,&'&)&!&~&{&]&> y$&%y$2#.#  ",
"> @ + @ @ ^&/&(&_&:&<&[&}&|&1&2&3&4&5&6&7&8&9&0&a&b&c&d&e&f&g&h&i&j&k&l&m&n&o&p&> &%y$q&2#.#  ",
"> + . # . r&s&t&u&v&w&x&y&z&A&B&C&D&E&F&G&H&I&J&N%K&L&M&N&O&P&Q&R&S&T&U&V&W&X&Y&> y$q&q&2#.#  ",
"> @ @ @ $ Z&`& *.*+*@*#*$*%*&***=*-*;*>*,*'*)*!*~*{*]*^*/*(*_*:*<*[*}*|*1*2*3*4*> q&&%q&; 5*  ",
"> # . $ $ 6*7*8*9*0*a*b*c*d*e*f*g*h*i*j*k*l*m*n*o*p*q*r*s*t*u*v*w*x*y*z*A*B*C*D*> y$E*E*F*.#  ",
"> . $ . $ G*H*I*J*K*L*M*N*O*P*Q*R*S*T*U*V*W*X*Y*Z*`* =.=+=@=#=$=%=&=*===-=;=>=,=> q&E*'=; 5*  ",
"> $ . $ $ o > > > > > > > > > > > > > > > > > > > > > > > > > > > > > > > > > > > E*E*' )=5*  ",
"> % $ % $ % * % * = * = * = = = = W <.W V.(+R+(+R+o R+- o - 2$s#2$&%y$&%y$5*5*5*E*'=E*'=; 5*  ",
"> $ % $ & & & * * * = ! = ! <.<.<.V.W V.(+!=o o o o o 1#s#1#y$2$y$y$&%y$q&5*~=~=<.' ~ ' )=5*  ",
"> % $ % * & * & * = * = = = = W <.W W (+R+(+o - o - o s#2$s#2$&%y$&%y$q&&%q&<.W = '=' ~ {=5*  ",
"> o ~ ] ~ ] ~ ] ] ] [.] [.] [.] [.p [.p [.p 2#p 2#p 2#p 2#*%2#; 2#; F*; F*; )=; )=; )=]=)=5*  ",
"~ 5*5*5*5*5*5*5*5*5*5*5*5*5*5*5*5*5*5*5*5*5*5*5*5*5*5*5*5*5*5*5*5*5*5*5*5*5*5*5*5*5*5*5*5*5*  ",
"                    > [.)=F*)=F*) = W 1#&%' [.2#)=^=) { ^ }.^ /=) ^=(=^=_=                    ",
"                  > o _=[._=[._=2#(=[.'=' '=[.2#)=(=(=}.q { (=F*[._=p [.{ _=                  ",
"                > $ ~ ' E*E*~ ' E*' :=:=)=]=(=^=(=^=(=]=F*2#~ ' E*E*q&q&[.) _=                ",
"              > > s#2$s#2$s#2$- 1#s#2$- o - o - o - o - o - R+- o - R+(+o [.{ _=              ",
"            > > > > > > > > > > > > > > > > > > > > > > > > > > > > > > > > [.)               ",
"            > o o o o o o o o o o o o o o o o o o o o o o o o o o o o o o o o 5*              ",
"            > o o o o o o o o o o o o o o o o o o o o o o o o o o o o o o o o 5*              ",
"            p 5*5*5*5*5*5*5*5*5*5*5*5*5*5*5*5*5*5*5*5*5*5*5*5*5*5*5*5*5*5*5*5*{               ",
"            o E*:=:=:=:=:=_=:=:=:=_=:=_=:=_=:=_=_=_=:=] _=_=_=] _=] p ] _=] p o               ",
"                                                                                              "};
