/* XPM */
char * unknown_xpm[] = {
"48 48 19 1",
" 	c None",
".	c #E7E3E7",
"+	c #C6C3C6",
"@	c #848284",
"#	c #A5A2A5",
"$	c #636163",
"%	c #0000FF",
"&	c #0138C7",
"*	c #0255AA",
"=	c #07E21D",
"-	c #08FF00",
";	c #001CE3",
">	c #03718E",
",	c #048D72",
"'	c #05AA55",
")	c #00FF00",
"!	c #FFFFFF",
"~	c #218A21",
"{	c #212021",
"         ..................++++++++++++@@       ",
"         .............++++++++++#######$$@@     ",
"         .............+++++++++########$$$$@@   ",
"         ..+#@#########################$$$$$$$  ",
"         ..+%%%%%%%%%%%%%%%%%%%%%%%%###$$$$$$$  ",
"         ..+%%%%%%%%%%%&**&%%%%%%%%%###$$$$$$$  ",
"         ..+%%%%%%%%%*=----=*%%%%%%%###$$$$$$$  ",
"         ..+%%%%%%%%%--------;%%%%%%###$$$$$$$  ",
"         ..+%%%%%%%%*-->%;=--,%%%%%%###$$$$$$$  ",
"         ..+%%%%%%%%&-,%%%'--'%%%%%%###$$$$$$$  ",
"         ..+%%%%%%%%%%%%%%=--,%%%%%%###$$$$$$$  ",
"         ..+%%%%%%%%%%%%;'---&%%%%%%###$$$$$$$  ",
"         ..+%%%%%%%%%%;,----,%%%%%%%###$$$$$$$  ",
"         ..+%%%%%%%%%;=---=*%%%%%%%%###$$$$$$$  ",
"         ..+%%%%%%%%%,--'&%%%%%%%%%%###$$$$$$$  ",
"         ..+%%%%%%%%%'--&%%%%%%%%%%%###$$$$$$$  ",
"         ..+%%%%%%%%%*'>%%%%%%%%%%%%###$$$$$$   ",
"         ..+%%%%%%%%%**%%%%%%%%%%%%%###$$$$$$   ",
"         ..+%%%%%%%%'--'%%%%%%%%%%%%###$$$$$    ",
"         ..+%%%%%%%%----%%%%%%%%%%%%###$$$$$    ",
"         .++%%%%%%%%*--*%%%%%%%%%%%%###$$$$     ",
"         .++%%%%%%%%%%%%%%%%%%%%%%%%###$$$$     ",
"         .++%%%%%%%%%%%%%%%%%%%%%%%%###$$$$     ",
"         .++#######%%%%%%%%%%%%%%%%%###$$$$     ",
"         .++++++++++++++++++++#########$$$      ",
"         .+++++++++++++##########))####$$$      ",
"         ##############################$$$      ",
"                .!.++##################$$       ",
"             .!..+##@@$$$$$$$$$$$$$$$$$$$$$@@@@$",
"          .!!..+##@@@@@@$$$$$$$$$$$$$$$$$$@@@@$$",
"        ......###@@@@@@@@@$$$$$$$$$$$$$@@@@@$$$$",
"        .+####++++++++###@@@@$$$$$$$$@@@@@$$$$$$",
"        .+############+++++++++#########$$$$$$$$",
"        .+#))~#################++++++++$$$$$$$$$",
"        .+#~~~#########################$$$$$$$$$",
"        .+###################@@@@@#####$$$$$$$$$",
"        !+#################@@@$$$$#@@@#$$$$$$$$$",
"        +++#+################++++++####$$$$$$$$$",
"      ##++##+#++#++####################$$$$$$$$$",
"    ##..+##+##+##++#++#++##############$$$$$$$  ",
"  ##...+@#+@#+@##+##+##+##@++#++#+#####$$$$$    ",
"@#+..#+@#+@#.@#.+@#+@#+@#+.+##+##+#@+#${$$      ",
"@###++......##++@#+@#+@#+.+@#+##+#@++$${        ",
" @@@@####++++!......+##++#@##@###@+#$${         ",
"      @@@@@@####++++!!!...++#####.#$${          ",
"             @@@@@@####++++......#@${           ",
"                    @@@@@@###+++#@${            ",
"                           @@@@@@$$             "};
