/* XPM */
static char * vms_xpm[] = {
"48 47 295 2",
"  	c None",
". 	c #B6AD9A",
"+ 	c #B6AD99",
"@ 	c #B6AC9A",
"# 	c #A77776",
"$ 	c #A3696E",
"% 	c #9D5762",
"& 	c #93334A",
"* 	c #9C525E",
"= 	c #B19A8E",
"- 	c #7A8488",
"; 	c #103D6A",
"> 	c #4E677C",
", 	c #B6AC99",
"' 	c #AE9187",
") 	c #A57173",
"! 	c #9D5661",
"~ 	c #9B505D",
"{ 	c #A97D7B",
"] 	c #AD8D85",
"^ 	c #9E5A63",
"/ 	c #AA827E",
"( 	c #B3A192",
"_ 	c #AAA496",
": 	c #274D71",
"< 	c #003265",
"[ 	c #003366",
"} 	c #073868",
"| 	c #999991",
"1 	c #B7AD9A",
"2 	c #994858",
"3 	c #A46E71",
"4 	c #9F5D66",
"5 	c #94384D",
"6 	c #A57273",
"7 	c #92324A",
"8 	c #984656",
"9 	c #AD8E85",
"0 	c #B5A695",
"a 	c #92948F",
"b 	c #033567",
"c 	c #697984",
"d 	c #969790",
"e 	c #838A8B",
"f 	c #123F6B",
"g 	c #617481",
"h 	c #B7AC9A",
"i 	c #AD8C84",
"j 	c #9F5C65",
"k 	c #8B1838",
"l 	c #9C525F",
"m 	c #AF9389",
"n 	c #AA837E",
"o 	c #A9807D",
"p 	c #B4A494",
"q 	c #023466",
"r 	c #5B7080",
"s 	c #888D8C",
"t 	c #758187",
"u 	c #0D3C69",
"v 	c #A77777",
"w 	c #953C50",
"x 	c #A2686D",
"y 	c #A36A6E",
"z 	c #AC8882",
"A 	c #A67676",
"B 	c #963F52",
"C 	c #953A4E",
"D 	c #A57072",
"E 	c #A97E7B",
"F 	c #B4A393",
"G 	c #ADA697",
"H 	c #2C5072",
"I 	c #083868",
"J 	c #A09D93",
"K 	c #A97F7C",
"L 	c #923048",
"M 	c #93354C",
"N 	c #9E5A64",
"O 	c #848B8B",
"P 	c #1E476E",
"Q 	c #B7AD99",
"R 	c #A87C7A",
"S 	c #A77978",
"T 	c #A1646A",
"U 	c #953B4F",
"V 	c #9E5963",
"W 	c #A46F71",
"X 	c #AE8E86",
"Y 	c #8F928E",
"Z 	c #415E78",
"` 	c #456179",
" .	c #4B657B",
"..	c #576D7E",
"+.	c #4F687C",
"@.	c #47627A",
"#.	c #5E7280",
"$.	c #748087",
"%.	c #868C8C",
"&.	c #A09E93",
"*.	c #6D7C85",
"=.	c #A9A496",
"-.	c #727F86",
";.	c #B4A595",
">.	c #9D5560",
",.	c #A1636A",
"'.	c #9F5E66",
").	c #93354B",
"!.	c #B5A796",
"~.	c #0E3C6A",
"{.	c #22496F",
"].	c #49637A",
"^.	c #305373",
"/.	c #13406B",
"(.	c #385875",
"_.	c #5E7180",
":.	c #6A7A84",
"<.	c #7B8589",
"[.	c #627482",
"}.	c #9B4E5B",
"|.	c #9E5862",
"1.	c #B3A293",
"2.	c #A87D7A",
"3.	c #B6AB98",
"4.	c #A2676C",
"5.	c #B0968B",
"6.	c #9B9A92",
"7.	c #657682",
"8.	c #51697D",
"9.	c #063767",
"0.	c #436079",
"a.	c #244B70",
"b.	c #840028",
"c.	c #AE8F86",
"d.	c #A46E70",
"e.	c #B29C8E",
"f.	c #A06168",
"g.	c #9C5460",
"h.	c #B19B8E",
"i.	c #053667",
"j.	c #596E7F",
"k.	c #3B5A76",
"l.	c #B3A292",
"m.	c #8E2441",
"n.	c #9E5B64",
"o.	c #A16369",
"p.	c #B19A8D",
"q.	c #B39F91",
"r.	c #AA817D",
"s.	c #A39F94",
"t.	c #1C456E",
"u.	c #52697D",
"v.	c #A46D70",
"w.	c #B29E90",
"x.	c #902B45",
"y.	c #B1998D",
"z.	c #B0A898",
"A.	c #737F86",
"B.	c #4D667B",
"C.	c #B4AB99",
"D.	c #A46F72",
"E.	c #A9807C",
"F.	c #B29C8F",
"G.	c #7C8589",
"H.	c #2B5072",
"I.	c #A4A094",
"J.	c #A36B6F",
"K.	c #AF9288",
"L.	c #A1656B",
"M.	c #B5A896",
"N.	c #A57374",
"O.	c #979891",
"P.	c #325474",
"Q.	c #AB8781",
"R.	c #A2656B",
"S.	c #093968",
"T.	c #949590",
"U.	c #4F677C",
"V.	c #80888A",
"W.	c #1D466E",
"X.	c #A3696D",
"Y.	c #A2666B",
"Z.	c #B0978B",
"`.	c #AE9087",
" +	c #2A4F72",
".+	c #254B70",
"++	c #3C5B77",
"@+	c #A87B79",
"#+	c #B0958A",
"$+	c #AC8A83",
"%+	c #3E5C77",
"&+	c #A9A396",
"*+	c #923149",
"=+	c #A36C6F",
"-+	c #8F2642",
";+	c #AF9289",
">+	c #A67575",
",+	c #AC8781",
"'+	c #9E9C92",
")+	c #3A5A76",
"!+	c #536A7D",
"~+	c #8F2742",
"{+	c #9C545F",
"]+	c #AD8B84",
"^+	c #AC8B83",
"/+	c #984455",
"(+	c #A05F67",
"_+	c #9A4B5A",
":+	c #A7A295",
"<+	c #6B7A84",
"[+	c #B7AC99",
"}+	c #A67374",
"|+	c #A77676",
"1+	c #B5A997",
"2+	c #375875",
"3+	c #264C71",
"4+	c #8F2843",
"5+	c #A77877",
"6+	c #9F5D65",
"7+	c #B6AA98",
"8+	c #9F9D93",
"9+	c #B5AC99",
"0+	c #7F878A",
"a+	c #697983",
"b+	c #707E86",
"c+	c #1F476E",
"d+	c #0C3B69",
"e+	c #043567",
"f+	c #A36B6E",
"g+	c #AEA797",
"h+	c #738086",
"i+	c #405E78",
"j+	c #14406B",
"k+	c #013366",
"l+	c #315373",
"m+	c #435F79",
"n+	c #4A647B",
"o+	c #953A4F",
"p+	c #9F5B64",
"q+	c #A57274",
"r+	c #AA847F",
"s+	c #989891",
"t+	c #18436D",
"u+	c #858C8C",
"v+	c #9A9A91",
"w+	c #AFA797",
"x+	c #AFA897",
"y+	c #858C8B",
"z+	c #17426C",
"A+	c #1F486F",
"B+	c #878D8C",
"C+	c #AB847F",
"D+	c #8A8F8D",
"E+	c #B6A997",
"F+	c #9D5460",
"G+	c #8C908D",
"H+	c #82898A",
"I+	c #425F78",
"J+	c #AB8681",
"K+	c #9E9C93",
"L+	c #AB8580",
"M+	c #ACA697",
"N+	c #335574",
"O+	c #0A3968",
"P+	c #16426C",
"Q+	c #6E7C85",
"R+	c #556B7E",
"S+	c #20486F",
"T+	c #788388",
"U+	c #234A70",
"V+	c #B3AA98",
"W+	c #365775",
"X+	c #013466",
"Y+	c #959690",
"Z+	c #9B4E5C",
"`+	c #912E47",
" @	c #AF9489",
".@	c #A87A78",
"+@	c #48637A",
"@@	c #A67475",
"#@	c #315474",
"$@	c #B29D8F",
"%@	c #9C535F",
"&@	c #9A9991",
"*@	c #264C70",
"=@	c #A06269",
"-@	c #8B8F8D",
";@	c #0A3A69",
">@	c #2D5172",
",@	c #355675",
"'@	c #15416B",
")@	c #9F5B65",
"!@	c #B0978C",
"~@	c #6F7D85",
"{@	c #828A8B",
". . . . . + + . . . . . . + + . . . . . . + + . . . . . . + + . . . . . . + + . . . . . . + + . ",
"@ . + + . . + + @ . + + . . + + @ . + + . . + + @ . + + . . + + @ . + + . . + + @ . + + . . + + ",
". . . . . . . . . . . . . . . . . . . # $ $ % & * * * = . - ; ; ; ; ; ; ; ; > . . . . . . . . . ",
", , @ , . + . . , , @ , . + . . ' ) ! ~ { ] ^ / ) ) ) ( _ : < [ [ [ [ [ < [ } | , , @ , . + . . ",
". . . 1 . . 1 . . . . 1 . . ] 2 3 4 5 6 * 7 8 6 9 9 9 0 a < b c d d d d e f < g . . . 1 . . 1 . ",
"h @ . . + . @ h h @ . . i j k 3 * l m . n j o o o o o p a < q r s s s s t u < g h @ . . + . @ h ",
"@ , + + @ , . + @ , + v w w x y z z A B C D E E E E E F G H < < < < [ [ < [ I J @ , + + @ , . + ",
". . . + + . + + . . K L ) A M * # # K N + . + + . . . + + O P P P P P P P P r + . . . + + . + + ",
"1 . . . 1 . Q 1 F R S T U V Q 1 1 . W X 1 . Q 1 1 . Y Z `  ... . ...+.@.#.$.%.&.*.=.e | -.. Q 1 ",
"h . @ 1 . @ 1 ;.>.# ,.'.).@ 1 h h !.! 1 . @ 1 h h . - < ~.{.].{.{.].^./.(.- g *.~._.:.<.[.@ 1 h ",
"1 1 1 @ @ 1 , }.N |.1.2.! 3.1 1 1 4.5.@ @ 1 1 1 1 1 6.7.8.< 9.7.7.7.0.< a.1 1 1 1 1 1 @ @ 1 1 1 ",
". . 1 1 . 1 6 b.|.!.c.d.e.f.. . . ~ 1 1 . 1 . { g.g.g.h.a [ i.j.j.j.k.< a.1 . . . . 1 1 . 1 . . ",
"1 1 1 1 1 l.m.n.1 1 o.p.1 q.4 . 1 L j g.* * * r.3.3.3., s.t.[ < < < < < u.@ . . 1 1 1 1 1 @ . . ",
"1 . 1 . 1 g.A E 1 c.v.. w.,.4 x.L y.F 3.1 . 1 . 1 . 1 . 1 z.A.B.B.B.B.| C.. 1 . 1 . 1 . 1 . 1 . ",
"+ , . @ ] D.~ . + 4.E.% f.h.F.F % n.r.@ + . . . + , . @ + G.f f f f f H.I.. . . + , . @ + . . . ",
"@ . . 1 V p J.K.K.j L.M.@ . . . ~ F E n.N.N.N.K.@ . . 1 O.I < < < < < < P.. . . @ . . 1 @ . . . ",
". . . Q.A . !.! ! R.. . 1 . . . ~ . . p i i i v.* * * = a < S.T.U.[ V.W.a.. . . . . . . 1 . . . ",
". + . E E !.X.$ j ( . . + . . Y.Z.+ . . + `./ / / / / p 6.~.q  +g < .+I ++. . . . + . . + . . . ",
". 1 @ 4 @+|.y.. V L.#+. . @ 1 ~ F.$+v * * 3 R R R R R F . s a.a.-.a.a.%+&+@ 1 . . 1 @ . . @ 1 . ",
"+ + . *+B . . . ~ 5.$ i !.K.=+-+;+>+,+1 1 . . . + + . 1 '+)+)+)+)+)+)+)+!+. . . + + . 1 1 . . . ",
"@ @ , ~+S @ @ , ~ @ F.B {+N ]+~ @ @ , @ @ @ @ , @ @ , @ a [ < [ [ [ [ < a.@ @ , @ @ , @ @ @ @ , ",
"@ . ^+6 /+z . . ~ / o.w.w.R.(+_+( ( 3.. . + . . @ . , . :+<+<+<+<+<+@.< a.+ . . @ . , . . + . . ",
"[+[+}+$+[+|+|.1+-+R [++ [+, !.x.'.'.{+* K.1+1+1+[+[+[++ s.!+!+!+!+!+2+< 3+, [+[+[+[+[++ [+, [+[+",
", Q }+$+. . !.4+~ Q . + . . . ~ , Q . + v.! ! ! ! ! ! h.a [ [ < < < < < %.. . . , Q . + . . . . ",
", . }+$+, 5+6+7+-+R + . , . . ~ , . + . , . . . 1+1+1+, s.!+!+!+!+!+!+8+9+0+a+. , . + . , . . . ",
"@ + 1+w j Q.M.@ ~ / V R.p.. 1 ~ @ + . . + . 1 @ @ + . . + . 1 @ @ b+<+c+d+e+d+@ @ + . . + . 1 @ ",
". . . ~+S @ . . ~ . 0 y.f+v.) ~ . . . . @ @ . . . . . . @ g+h+i+j+k+< < l+m+n+. . . . . @ @ . . ",
", + . o+p+p.@ . g.1+. , !.K.] -+* q+>+r+. . @ . , + . , s+t+[ < < < u+v+w+. @ . , + . , . . @ . ",
"Q . + g.`.y y.. j ( + . . . + ~ Q i $+@+* 3 R R R R R F x+y+P.z+[ [ A+a.:.O B+. Q . + . . . + . ",
". , . E E !.X.C+j ( . . . . . 5.4., . . . `./ / / / / p . . . 8+D+l+ +I < < d+. . , . . . . . . ",
", , [+Q.A [+E+@+U F+Z.. + [+@ @ ~ , [+. + [+@ @ , , [+. + [+@ @ , , [+G+H+I+H @ , , [+. + [+@ @ ",
". . . @ ~ @ . . . w L.J+0 @ . . ~ . . @ . @ . . . . . @ K+++++++++++++++++++` . . . . @ . @ . . ",
", @ @ @ 5+L+. , , 3 c.5+V * E h.% ;.@ @ , @ . , , @ @ @ d f f f f f d+< < [ d+, , @ @ @ , @ . , ",
"+ + + + + g.1++ + + * 3.+ + r.,.L 2 * m F p + + + + + + + + z.M+V.B.N+q O+P+Q++ + + + + + + + + ",
". 1 @ . . l.n.. . 1 N.$+. @ 1 . . ~ @ =+j N * * * * * = s.R+{.< < < S+T+. @ 1 . . 1 @ . . @ 1 . ",
", + @ , . . 5+|., + c.d.. . . . , ~ @ , . . . . , + @ , I.j.U+< < < c+t . . . . , + @ , . . . . ",
", @ , @ , @ , # V (+1.2.E.@ , @ , 4.5.@ , @ , @ , @ , @ , @ V+z.O 8.W+X+9.f <+@ , @ , @ , @ , @ ",
"@ [+. . + h . . @+>+,.A J.#+. . @ !.! . + h . . @ [+. . Y+~.~.~.~.~.S.< < < d+. @ [+. . + h . . ",
". , . . @ + . . . { S L+Z+`+ @. . , n .@@ + . . . , . . 8+Z Z Z Z Z Z Z Z Z +@. . , . . @ + . . ",
". 1 . 1 . . . . . 1 K E . ] N * * @@# g.w.. . . . 1 . 1 . O P P 7.1 I.#@P P r . . 1 . 1 . . . . ",
", . + . , . . @ , . + r.N.$@m *  @$+z %@L |.E E E E E F &@d+[ [ R+s.*@< < [ q h+, . + . , . . @ ",
". + . . + . . . . + . . i =@) h.J.K.. . n @@o o o o o p a < S.s -@{.< ;@Q+>@< g . + . . + . . . ",
". . . @ @ @ @ . . . . @ @ @ ] T 3 6 5+F.@ L+5+. . . . @ a [ b W+W.< ;@<.j.f < g . . . @ @ @ @ . ",
"+ + . . . . . + + + . . . . . + ' ) ! 7 %@#+{ A + + . . _ ,@[ [ [ S.V.. ^.[ '@| + + . . . . . + ",
"1 . + Q 1 . . Q 1 . + Q 1 . . Q 1 . + Q @+$ )@`+_+!@$@E+1 G ~@~@~@G++ Q {@~@v+Q 1 . + Q 1 . . Q ",
". . + . . + . . . . + . . + . . . . + . . + . . $+=@=@w.. + . . . . + . . + . . . . + . . + . . ",
"@ @ @ . . 1 . . @ @ @ . . 1 . . @ @ @ . . 1 . . @ @ @ . . 1 . . @ @ @ . . 1 . . @ @ @ . . 1 . . "};
