/* XPM */
static char * macx1_xpm[] = {
"45 45 257 2",
"  	c None",
". 	c #FFFFFF",
"+ 	c #2A93D2",
"@ 	c #24AAE1",
"# 	c #0076C3",
"$ 	c #3289CA",
"% 	c #7BA1D0",
"& 	c #2292D2",
"* 	c #0044A5",
"= 	c #1B4699",
"- 	c #FFF7F9",
"; 	c #89ACD6",
"> 	c #7B9CCE",
", 	c #E7E3EE",
"' 	c #0063B9",
") 	c #2FACE2",
"! 	c #2CA4DD",
"~ 	c #3E6AAF",
"{ 	c #6193CB",
"] 	c #FFFBFA",
"^ 	c #4D76B7",
"/ 	c #0062B5",
"( 	c #E3EAF5",
"_ 	c #DBE6F2",
": 	c #4B94CF",
"< 	c #85B1DC",
"[ 	c #689ED1",
"} 	c #5498D1",
"| 	c #B5BEDB",
"1 	c #C4CBE3",
"2 	c #9ABDE1",
"3 	c #B1C1E0",
"4 	c #2C89CB",
"5 	c #038BD1",
"6 	c #5392CC",
"7 	c #022A88",
"8 	c #448BC9",
"9 	c #C5D3E9",
"0 	c #79B1DE",
"a 	c #148BCF",
"b 	c #91C8EC",
"c 	c #067FC7",
"d 	c #7AA9D5",
"e 	c #67CEF3",
"f 	c #9BB6DC",
"g 	c #93C5E8",
"h 	c #005CB2",
"i 	c #72A9D8",
"j 	c #68D2F7",
"k 	c #0596D8",
"l 	c #1353A5",
"m 	c #EDEAF2",
"n 	c #A3C2E5",
"o 	c #5BA6DA",
"p 	c #53BDEA",
"q 	c #91ADD5",
"r 	c #26B1E6",
"s 	c #3C9DD6",
"t 	c #3CB9EA",
"u 	c #8EBAE3",
"v 	c #81A4D3",
"w 	c #ABC2E3",
"x 	c #4BBAEA",
"y 	c #8CC4EB",
"z 	c #099BDB",
"A 	c #75C4EC",
"B 	c #88D6F5",
"C 	c #00389D",
"D 	c #38559E",
"E 	c #F3F9FD",
"F 	c #1B9AD8",
"G 	c #A2B9DB",
"H 	c #2489CB",
"I 	c #0082CC",
"J 	c #1DA2DE",
"K 	c #82ACD9",
"L 	c #CED3E6",
"M 	c #F2E9F2",
"N 	c #0059B1",
"O 	c #006BBD",
"P 	c #DFDCEB",
"Q 	c #003DA1",
"R 	c #0053AE",
"S 	c #FFFEFD",
"T 	c #036DBA",
"U 	c #4595CF",
"V 	c #2354A1",
"W 	c #3BA9DE",
"X 	c #FFFFFE",
"Y 	c #0250A9",
"Z 	c #34A2DB",
"` 	c #82A1CF",
" .	c #D6DCED",
"..	c #2E91D0",
"+.	c #F8ECF3",
"@.	c #0B74BE",
"#.	c #1B7EC5",
"$.	c #158ED1",
"%.	c #BAC1DE",
"&.	c #1F4294",
"*.	c #004EAD",
"=.	c #E2E7F3",
"-.	c #75A1D1",
";.	c #ACBEDD",
">.	c #518BC6",
",.	c #BEC6E1",
"'.	c #FCFCFD",
").	c #349CD7",
"!.	c #1BABE4",
"~.	c #82A8D4",
"{.	c #4286C5",
"].	c #F4F1F7",
"^.	c #0698D9",
"/.	c #4A89C6",
"(.	c #006CBC",
"_.	c #007CC8",
":.	c #D7DBEC",
"<.	c #D6DAEA",
"[.	c #439BD5",
"}.	c #F2ECF4",
"|.	c #CBD2E8",
"1.	c #0068B9",
"2.	c #FAF4F7",
"3.	c #FFFCFC",
"4.	c #D2D8EB",
"5.	c #5AC8F0",
"6.	c #3CC1EF",
"7.	c #42AADE",
"8.	c #4A5EA2",
"9.	c #F5EFF5",
"0.	c #44A1DA",
"a.	c #DCEAF6",
"b.	c #2099D6",
"c.	c #7DC4EB",
"d.	c #8FB9DE",
"e.	c #4A98D0",
"f.	c #D4E4F3",
"g.	c #61AEDF",
"h.	c #63A3D5",
"i.	c #0E87CB",
"j.	c #0060B4",
"k.	c #0058B4",
"l.	c #8EAFD8",
"m.	c #1C59A9",
"n.	c #27C0F1",
"o.	c #8BB2DD",
"p.	c #9BD1F1",
"q.	c #30A8DF",
"r.	c #9DB1D7",
"s.	c #7CCEF0",
"t.	c #BBE1F7",
"u.	c #92B5DA",
"v.	c #5E95CE",
"w.	c #91DCF8",
"x.	c #E0DFED",
"y.	c #C7DBF0",
"z.	c #3591CF",
"A.	c #8AA7D4",
"B.	c #4695D2",
"C.	c #78BDE6",
"D.	c #72BEE9",
"E.	c #75BAE4",
"F.	c #76B7E1",
"G.	c #1078C1",
"H.	c #51A3D8",
"I.	c #8FCBED",
"J.	c #85C5EB",
"K.	c #BDCEE7",
"L.	c #BFC8E1",
"M.	c #6F9BCD",
"N.	c #B8C9E5",
"O.	c #B7C7E3",
"P.	c #538DC9",
"Q.	c #11ABE5",
"R.	c #225FAA",
"S.	c #1A56A7",
"T.	c #289AD7",
"U.	c #0057AD",
"V.	c #0FAFE9",
"W.	c #86B4E0",
"X.	c #4569AF",
"Y.	c #3F62A9",
"Z.	c #68B4E3",
"`.	c #63BCEB",
" +	c #66B4E0",
".+	c #7ECAEF",
"++	c #64AEE1",
"@+	c #9FD8F5",
"#+	c #50B9E8",
"$+	c #50B4E5",
"%+	c #F8F9FE",
"&+	c #71D2F5",
"*+	c #149DD9",
"=+	c #4980C0",
"-+	c #EFF0F7",
";+	c #E5EEFA",
">+	c #B7D8F2",
",+	c #467FC1",
"'+	c #257CC1",
")+	c #CFD8EB",
"!+	c #4F8FCA",
"~+	c #D1D3E8",
"{+	c #91AFD9",
"]+	c #57A8D9",
"^+	c #BECBE4",
"/+	c #1DA6E1",
"(+	c #6BC1EA",
"_+	c #10B2EA",
":+	c #41BEED",
"<+	c #97B9DD",
"[+	c #B2CFEA",
"}+	c #5C8DC9",
"|+	c #57B0DE",
"1+	c #A4B6D9",
"2+	c #3B96D3",
"3+	c #34BCEC",
"4+	c #1499D7",
"5+	c #48ADE1",
"6+	c #4B60A4",
"7+	c #59ADE0",
"8+	c #B5CAE4",
"9+	c #819DCB",
"0+	c #99B0D6",
"a+	c #0196D8",
"b+	c #0F94D5",
"c+	c #D2DEEE",
"d+	c #4BA2DA",
"e+	c #DCE0EE",
"f+	c #1A80C7",
"g+	c #0C8ACD",
"h+	c #0070C0",
"i+	c #0DA5E1",
"j+	c #00ACEA",
"k+	c #07A1E0",
"l+	c #68BBE7",
"m+	c #1E85C9",
"n+	c #7997C9",
"o+	c #749FCF",
"p+	c #7397CA",
"q+	c #88E2FC",
"r+	c #A2B4D7",
"s+	c #9BC3E7",
"t+	c #F7E6F0",
"u+	c #0059AF",
"v+	c #0955A8",
"w+	c #2262AD",
"x+	c #6499CF",
"y+	c #1A91D1",
"z+	c #66B0DF",
"A+	c #299AD8",
"B+	c #FDFFFF",
"C+	c #1491D3",
"D+	c #5DB6E4",
"E+	c #0AA0DF",
"F+	c #FAF7FB",
"G+	c #C6D0E7",
"H+	c #004EA6",
"                                                                                          ",
"                                                                                          ",
"                                                                                          ",
"          =.)+  e+=.  }.9.  }.  a.          e+_     -   2.}.  L 1                         ",
"        >+m+#.$ U : 6 P.6 $ G.k.C =.      [+* Q R h j./ U.Y N / *.n+                      ",
"          /.m.4 j &+B e V.# v+w+n+          ^ l h ).E+W `.$+B.x+% 4.                      ",
"              r+} x #+s.k+>.                    L.[ 5.e 0 u.:.                            ",
"                3 u 5+a !./.                      }+7.).0+                                ",
"                  ~.b # I F ,.                  1+z.y+`                                   ",
"                    2 7+j.i+}                   v.! U                                     ",
"                    A.g g+_.@ G               f ..$.G+                                    ",
"                      0+A j.E+H.            ;+: b.d                                       ",
"                      ;.g & O @ o+          < A+4                                         ",
"                        K I.1.k W :.       .8 C+G                                         ",
"                        K.s+s ' r [     . [ + {.                                          ",
"                          ` J.# _.Z 1   O.2+$.L.                                          ",
"                          f.u l+h ^. ++.{ & h.                                            ",
"                            <+y m+h I {.d+'+                                              ",
"                            ( 0 .+h+I t + 0+                                              ",
"                              w n D+!.Q.8                                                 ",
"                                ` I.5 a+]+                                                ",
"                                |.++# 5 3+l.                                              ",
"                                w f+O 1.a+7.~+                                            ",
"                                } ^.@.o h r F.                                            ",
"                              f & |+9+t.#.# t ,.                                          ",
"                             .$ b+^+. -.C.N J 0                                           ",
"                            i F e.    %.n H h+#+w                                         ",
"                          N.+ $.|.      > D.h /+g.,                                       ",
"                        - !+& M.        O.2 ..h+5.d.                                      ",
"                        G T.H             {+I.h @ z+e+                                    ",
"                      =.8 4+~.            3 < ..(.p K                                     ",
"                      v & 4                 ~.b h J Z.L                                   ",
"                    ;...a |                 9 W.[.1.5.i                                   ",
"                  ].!+! >.                    > b (.F A 9                                 ",
"                  > s a %.                    9 u 0./ e W.                                ",
"                8+v.q.[                         % y O Z (+2                               ",
"              G+=+#+*+q                         c+; [.c B o x.                            ",
"            | ,+c.z ^.r.                          { p ) @+p.o.                            ",
"        K v.: w.q+_+j+..d 3 ,               1 -.} x n.6.:+6.t E.y.                        ",
"      { R 1.i.@.T (.' ' *.C C %           p+* Q 1.j.R R * * * * u+Y                       ",
"      A.V = V Y.~ X.^ Y.R.l H+l.          ; S.= &.&.D 8.8.6+D &.7 7 <.                    ",
"                                                                                          ",
"                                                                                          ",
"                                                                                          ",
"                                                                                          "};
