/* XPM */
static char * cisco_xpm[] = {
"88 47 17 1",
" 	c None",
".	c #DC9393",
"+	c #515151",
"@	c #003333",
"#	c #C45757",
"$	c #848484",
"%	c #CACACA",
"&	c #EBE6E6",
"*	c #AAAAAA",
"=	c #A10404",
"-	c #F1C9C9",
";	c #FAF6F6",
">	c #B63333",
",	c #090909",
"'	c #FFFFFF",
")	c #CEE7E7",
"!	c #669999",
"''''''''''''''''''''''''''''''''''''''''''''''''''''''''''''''''''''''''''''''''''''''''",
"'';>=>;'''''''''''''''''''''''''''''''&>==&'''''''''''''''''''''''''''''''''''''''''''''",
"''#===.'''''''''''''''''''''''''''''''#=>=#'''''''''''''''''''''''''''''''''''''''''''''",
"''==-=>'''''''''''''''''''''''''''''''=>;=='''''''''''''''''''''''''''''''''''''''''''''",
"''=>'#=''-#*''-##&'''.#*'''.#.''''''''=='.#'&.--.-';##-''*...&'&...'''..&-.-'';##*''''''",
"''=>'';''*=.''===#''*===''-===*'''''''>=#'''&=>#=-'.===''>===-'.===;';==-#=>''.===''''''",
"''=>'''''.=.''=>=>''#=#=&'.=#=.'''''''.==#'''>==>''>=#=''->=-;'*=#-'''==.#=#''>=#=''''''",
"''=>'''''-=#''==.-''#=-.;'.=-=>''''''''.==.''.==.''#=#-'''>=;''-=#.'''==#==#''#=#-''''''",
"''=>'&-''.=.''.=>-''>=';''.=;=#'''''''''#=>''.==-''-==-'''#='''.===;''=====#''-==.;'''''",
"''=>'#=''*=.'';#=#''#=--;'#=-=#'''''''=#'>=;';==''''.=='''>='''*=#-'''=====#'''-==''''''",
"''=>&>=''-=.'-=#=>''#=#=-'.=.=#'''''''==;>='''=>'''###=;''#='''-=.''''=>=>=#''#>#=''''''",
"''#===#''.=#';===#''.===;'-===.'''''''>===#'''=>'''#==='''#='''.===-''=>=>=#''>===''''''",
"''->==-''*=.''#==.''->=#'''>=>;'''''''.==>-'''=>'''.==.'''>='''*===-''=#=#=#''-==#''''''",
"''''''''''''''''''''''''''''''''''''''''''''''''''''''''''''''''''''''''''''''''''''''''",
"''''''''''''''''''''''''''''''''''''''''''''''''''''''''''''''''''''''''''''''''''''''''",
"''@@@@@@@@@@@@@@@@@@@@@@@@@@@@@@@@@@@@@@@@@@@@@@@@@@@@@@@@@@@@@@@@@@@@@@@@@@@@@@@@''''''",
"''@@@@@@@@@@@@@@@@@@@@@@@@@@@@@@@@@@@@@@@@@@@@@@@@@@@@@@@@@@@@@@@@@@@@@@@@@@@@@@@@''''''",
"''@@@@@@@@@@@@@@@@@@@@@@@@@@@@@@@@@@@@@@@@@@@@@@@@@@@@@@@@@@@@@@@@@@@@@@@@@@@@@@@@''''''",
"''@@@@@@@@@@@@@@@@@@@@@@@@@@@@@@@@@@@@@@@@@@@@@@@@@@@@@@@@@@@@@@@@@@@@@@@@@@@@@@@@''''''",
"''@@@@@@@@@@@@@@@@@@@@@@@@@@@@@@@@@@@@@@@@@@@@@@@@@@@@@@@@@@@@@@@@@@@@@@@@@@@@@@@@''''''",
"''@@@@@@@@@@@@@@@@@@@@@@@@@@@@@@@@@@@@@@@@@@@@@@@@@@@@@@@@@@@@@@@@@@@@@@@@@@@@@@@@''''''",
"''@@@@@@@@@@@@@@@@@@@@@@@@@@@@@@@@@@@@@@@@@@@@@@@@@@@@@@@@@@@@@@@@@@@@@@@@@@@@@@@@''''''",
"''@@@@@@@@@@@@@@@@@@@@@@@@@@@@@@@@@@@@@@@@@@@@@@@@@@@@@@@@@@@@@@@@@@@@@@@@@@@@@@@@''''''",
"''@@@@@@@@@@@@@@@@@@@@@@@@@@@@@@@@@@@@@@@@@@@@@@@@@@@@@@@@@@@@@@@@@@@@@@@@@@@@@@@@''''''",
"''@@@@@@@@@@@@@@@@@@@@'@@@@@@@@@@@@@@@@@@@@@@@@@@@@@@@@@@@@@@'@@@@@@@@@@@@@@@@@@@@''''''",
"''@@@@@@@@@@@@@@@@@@@@'@@@@@@@@@@@@@@@@@@@@@@@@@@@@@@@@@@@@@@'@@@@@@@@@@@@@@@@@@@@''''''",
"''@@@@@@@@@@@@@@@@@@@@'@@@@@@@@@@@@@@@@@@@@@@@@@@@@@@@@@@@@@@'@@@@@@@@@@@@@@@@@@@@''''''",
"''@@@@@@@@@@@@@@@@@@@@'@@@@@@@@@@@@@@@@@@@@@@@@@@@@@@@@@@@@@@'@@@@@@@@@@@@@@@@@@@@''''''",
"''@@@@@@@@@@@@@@@@@@@@'@@@@@@@@@@@@@@@@@@@@@@@@@@@@@@@@@@@@@@'@@@@@@@@@@@@@@@@@@@@''''''",
"''@@@@@@@@@@@@@@@@@@@@'@@@@@@@@@@@@@@@@@@@@@@@@@@@@@@@@@@@@@@'@@@@@@@@@@@@@@@@@@@@''''''",
"''@@@@@@@@@@@@@@@@@'@@'@@'@@@@@@@@@@@@@@@@@@@@@@@@@@@@@@@@'@@'@@'@@@@@@@@@@@@@@@@@''''''",
"''@@@@@@@@@@@@@@@@@'@@'@@'@@@@@@@@@@@@@@@@@@@@@@@@@@@@@@@@'@@'@@'@@@@@@@@@@@@@@@@@''''''",
"''@@@@@@@@@@@@@@@@@'@@'@@'@@@@@@@@@@@@@@@@@@@@@@@@@@@@@@@@'@@'@@'@@@@@@@@@@@@@@@@@''''''",
"''@@@@@@@@@@@@@@@@@'@@'@@'@@@@@@@@@@@@@@@@@@@@@@@@@@@@@@@@'@@'@@'@@@@@@@@@@@@@@@@@''''''",
"''@@@@@@@@@@@@@@@@@'@@'@@'@@@@@@@@@@@@@@@@@@@@@@@@@@@@@@@@'@@'@@'@@@@@@@@@@@@@@@@@''''''",
"''@@@@@@@@@@@@@@'@@'@@'@@'@@'@@@@@@@@@@@@@@@@@@@@@@@@@@'@@'@@'@@'@@'@@@@@@@@@@@@@@''''''",
"''@@@@@@@@@@@@@@'@@'@@'@@'@@'@@@@@@@@@@@@@@@@@@@@@@@@@@'@@'@@'@@'@@'@@@@@@@@@@@@@@''''''",
"''@@@@@@@@@@@@@@'@@'@@'@@'@@'@@@@@@@@@@@@@@@@@@@@@@@@@@'@@'@@'@@'@@'@@@@@@@@@@@@@@''''''",
"''@@@@@@@@@@@'@@'@@'@@'@@'@@'@@'@@@@@@@@@@@@@@@@@@@@'@@'@@'@@'@@'@@'@@'@@@@@@@@@@@''''''",
"''@@@@@@@@@@@'@@'@@'@@'@@'@@'@@'@@@@@@@@@@@@@@@@@@@@'@@'@@'@@'@@'@@'@@'@@@@@@@@@@@''''''",
"''@@@@@@@@'@@'@@'@@'@@'@@'@@'@@'@@'@@@@@@@@@@@@@@'@@'@@'@@'@@'@@'@@'@@'@@'@@@@@@@@'')!)'",
"''@@@@@'@@'@@'@@'@@'@@'@@'@@'@@'@@'@@'@@@@@@@@'@@'@@'@@'@@'@@'@@'@@'@@'@@'@@'@@@@@')@@@)",
"''@@'@@'@@'@@'@@'@@'@@'@@'@@'@@'@@'@@'@@'@@'@@'@@'@@'@@'@@'@@'@@'@@'@@'@@'@@'@@'@@'!@!@!",
"''@@'@@'@@'@@'@@'@@'@@'@@'@@'@@'@@'@@'@@'@@'@@'@@'@@'@@'@@'@@'@@'@@'@@'@@'@@'@@'@@')@@@)",
"'''''''''''''''''''''''''''''''''''''''''''''''''''''''''''''''''''''''''''''''''''')!)'",
"''''''''''''''''''''''''''''''''''''''''''''''''''''''''''''''''''''''''''''''''''''''''",
"''''''''''''''''''''''''''''''''''''''''''''''''''''''''''''''''''''''''''''''''''''''''"};
